<svg width="38" height="38" viewBox="0 0 38 38" fill="none" xmlns="http://www.w3.org/2000/svg">
<g clip-path="url(#clip0)">
<path d="M4.74996 11.875L28.5 11.875C32.4353 11.875 35.625 15.0646 35.625 19C35.625 22.9353 32.4353 26.125 28.5 26.125L7.12496 26.125C4.50176 26.125 2.37496 23.9982 2.37496 21.375C2.37496 18.7518 4.50176 16.625 7.12496 16.625L28.5 16.625C29.8122 16.625 30.875 17.689 30.875 19C30.875 20.3122 29.8122 21.375 28.5 21.375L9.49996 21.375L9.49996 23.75L28.5 23.75C31.1232 23.75 33.25 21.6232 33.25 19C33.25 16.3768 31.1232 14.25 28.5 14.25L7.12496 14.25C3.18961 14.25 -3.86304e-05 17.4396 -3.84584e-05 21.375C-3.82864e-05 25.3104 3.18961 28.5 7.12496 28.5L29.6875 28.5C34.3722 27.9145 38 23.8438 38 19C38 14.1562 34.3722 10.0854 29.6875 9.5L4.74996 9.5L4.74996 11.875Z" fill="white"/>
</g>
<defs>
<clipPath id="clip0">
<rect width="38" height="38" fill="white" transform="translate(-2.86102e-05 38) rotate(-90)"/>
</clipPath>
</defs>
</svg>
