<svg width="74" height="74" viewBox="0 0 74 74" fill="none" xmlns="http://www.w3.org/2000/svg">
<g clip-path="url(#clip0)">
<path d="M72.9465 19.4317C72.9463 19.4317 72.9463 19.4317 72.9462 19.4317L72.9437 19.4293L68.1672 18.7478C67.4959 18.6522 67.0292 18.0304 67.1248 17.3591C67.1707 17.0364 67.343 16.7454 67.6036 16.5499L71.4641 13.6545C72.0067 13.2476 72.1166 12.4781 71.7097 11.9355L67.2893 6.04165C66.8824 5.49907 66.1128 5.38918 65.5703 5.79607L61.711 8.69142C61.1708 9.10138 60.4006 8.99578 59.9906 8.45551C59.7915 8.19321 59.7062 7.86183 59.7538 7.53598L60.4365 2.75951C60.5327 2.08816 60.0666 1.46609 59.3954 1.3697C59.3949 1.3697 59.3945 1.36955 59.394 1.36955L52.1053 0.328299C51.4341 0.23191 50.8117 0.697892 50.7153 1.36924C50.7153 1.36939 50.7153 1.36939 50.7153 1.36955L50.0326 6.14602C49.937 6.81736 49.3152 7.28411 48.6439 7.18849C48.3213 7.1426 48.0302 6.97023 47.8347 6.70962L44.9406 2.84915C44.5337 2.30657 43.7641 2.19668 43.2215 2.60357L39.5317 5.37245C37.8624 5.19502 36.179 5.19502 34.5097 5.37245C23.5775 6.62197 15.0046 15.3403 13.9389 26.2919C13.9058 26.6394 13.8935 26.9844 13.8763 27.3295H13.508C12.9253 27.3306 12.4236 27.741 12.3071 28.3118L11.4586 32.3466L8.05984 30.0026C7.57206 29.666 6.9133 29.726 6.49429 30.145L2.81063 33.8287C2.39223 34.2475 2.33237 34.9054 2.6682 35.393L5.00118 38.7856L0.96512 39.6341C0.4006 39.7578 -0.00122508 40.2583 2.80638e-06 40.8362V45.7478C-0.000304165 46.3285 0.406586 46.8301 0.974943 46.9499L5.011 47.7983L2.67802 51.191C2.34219 51.6786 2.40205 52.3364 2.82045 52.7553L6.50411 56.4389C6.92312 56.858 7.58188 56.918 8.06966 56.5814L11.4623 54.2423L12.3108 58.2783C12.4273 58.8491 12.929 59.2595 13.5116 59.2606H18.4232C19.004 59.2609 19.5056 58.854 19.6253 58.2857L20.4738 54.2496L23.8664 56.5826C24.354 56.9184 25.0119 56.8586 25.4307 56.4402L27.3376 54.5271V58.0266C27.3432 59.7734 28.279 61.3849 29.7934 62.2554V69.0776C29.7934 71.7901 31.9924 73.9891 34.7049 73.9891H39.6165C42.329 73.9891 44.528 71.7901 44.528 69.0776V62.2554C46.0425 61.3849 46.9783 59.7734 46.9838 58.0266V53.1666C47.0171 51.1217 48.0869 49.2339 49.8239 48.1544C50.8429 47.4933 51.8092 46.7543 52.7143 45.9442L51.0763 44.1147C50.2667 44.8403 49.4016 45.5017 48.4892 46.0928C46.0511 47.623 44.5586 50.2882 44.528 53.1666V58.0266C44.528 59.3829 43.4286 60.4824 42.0722 60.4824H32.2492C30.8928 60.4824 29.7934 59.3829 29.7934 58.0266V53.0647C29.765 50.2407 28.296 47.627 25.8985 46.1345C16.1665 40.0194 13.2343 27.1728 19.3495 17.4407C23.1436 11.4024 29.7653 7.72722 36.8967 7.70175C36.8784 7.74549 36.8623 7.79015 36.8488 7.83559C36.8032 8.15791 36.8877 8.48529 37.0833 8.74545L39.9775 12.6047C40.2826 12.9996 40.3119 13.542 40.0511 13.9676C39.8 14.3959 39.3146 14.6295 38.8233 14.5583L34.0468 13.8755C33.3754 13.7793 32.7534 14.2454 32.657 14.9166C32.657 14.9171 32.6568 14.9176 32.6568 14.918L31.6143 22.2104C31.5181 22.8816 31.9842 23.5039 32.6554 23.6002C32.6559 23.6002 32.6564 23.6004 32.6568 23.6004L37.4333 24.2831C38.1046 24.3787 38.5714 25.0005 38.4758 25.6718C38.4299 25.9945 38.2575 26.2855 37.9969 26.481L34.1377 29.3751C33.5951 29.782 33.4852 30.5516 33.8921 31.0942L38.3125 36.988C38.7193 37.5306 39.4889 37.6405 40.0315 37.2336L43.892 34.3395C44.435 33.9334 45.2046 34.0443 45.6107 34.5875C45.805 34.8474 45.8887 35.1737 45.8431 35.4949L45.1616 40.2714C45.0652 40.9426 45.5312 41.565 46.2025 41.6614C46.2027 41.6614 46.2027 41.6614 46.2028 41.6614L53.4965 42.7038C53.5539 42.7112 53.6118 42.7149 53.6696 42.7149C54.2809 42.7156 54.7996 42.2665 54.8864 41.6614L55.5679 36.8849C55.6635 36.2135 56.2853 35.7468 56.9567 35.8424C57.2793 35.8883 57.5703 36.0607 57.7658 36.3213L60.6612 40.1805C61.0681 40.7231 61.8377 40.833 62.3802 40.4261L68.2741 36.0057C68.8167 35.5988 68.9265 34.8292 68.5197 34.2867L65.6255 30.4274C65.3218 30.0319 65.2925 29.4904 65.5519 29.0645C65.7976 28.6306 66.2875 28.3954 66.7797 28.4751L71.5562 29.1566C72.2274 29.253 72.8498 28.7868 72.9462 28.1156C72.9462 28.1155 72.9462 28.1155 72.9462 28.1153L73.9874 20.8217C74.0838 20.1503 73.6178 19.5281 72.9465 19.4317ZM32.2492 62.9381H42.0722V65.3939H32.2492V62.9381ZM32.2492 67.8497H42.0722V69.0776C42.0722 70.4339 40.9728 71.5333 39.6165 71.5333H34.7049C33.3486 71.5333 32.2492 70.4339 32.2492 69.0776V67.8497ZM22.474 46.6748C23.1444 47.2231 23.8449 47.7335 24.5724 48.2035C25.7326 48.9367 26.606 50.046 27.0466 51.3457L24.4128 53.9746L21.8625 52.2163C20.7457 51.4467 19.2166 51.7282 18.4468 52.8449C18.2623 53.1128 18.1328 53.4145 18.0659 53.7327L17.4225 56.7987H14.5038L13.8604 53.7376C13.581 52.4104 12.2787 51.5609 10.9515 51.8402C10.6333 51.9071 10.3316 52.0367 10.0637 52.2212L7.5122 53.9746L5.275 51.7423L7.0321 49.1932C7.80244 48.0769 7.52187 46.5476 6.40557 45.7772C6.13758 45.5923 5.83552 45.4624 5.51689 45.3954L2.45577 44.7507V41.8333L5.51689 41.1886C6.84362 40.9073 7.69117 39.6037 7.40983 38.2768C7.34306 37.962 7.21521 37.6635 7.03333 37.3981L5.275 34.8417L7.5122 32.6094L10.065 34.3677C11.1822 35.1365 12.7114 34.8541 13.4802 33.7369C13.6644 33.4694 13.7936 33.1679 13.8604 32.8501L14.0752 31.8285C14.272 33.2433 14.5979 34.6369 15.049 35.9922C11.0088 36.4738 8.12399 40.1397 8.60563 44.1799C9.08727 48.2201 12.7531 51.1049 16.7933 50.6232C19.2255 50.3331 21.3545 48.8534 22.474 46.6748ZM20.5671 44.9447C19.6501 47.4933 16.8409 48.8161 14.2923 47.8993C11.7436 46.9824 10.4209 44.1731 11.3377 41.6245C12.0391 39.6748 13.8903 38.3761 15.9623 38.3804C15.9783 38.3804 15.993 38.3804 16.009 38.3804C17.1382 40.8152 18.6803 43.036 20.5671 44.9447ZM70.682 26.5485L67.1211 26.0402C65.1071 25.7526 63.2413 27.1522 62.9537 29.1661C62.8155 30.1332 63.0672 31.1157 63.6535 31.8972L65.8109 34.7741L61.8817 37.7211L59.7231 34.8454C58.5026 33.2176 56.1937 32.8875 54.5661 34.108C53.7846 34.694 53.2678 35.5666 53.1293 36.5337L52.632 40.0995L47.7709 39.4045L48.2792 35.8436C48.5676 33.8298 47.1687 31.9634 45.1549 31.6751C44.1871 31.5365 43.2042 31.7882 42.4222 32.3749L39.5453 34.5323L36.5983 30.603L39.474 28.4444C41.1018 27.2239 41.4319 24.915 40.2114 23.2874C39.6254 22.5059 38.7528 21.9891 37.7857 21.8507L34.2248 21.3423L34.9198 16.4811L38.4807 16.9895C40.4946 17.2779 42.361 15.879 42.6492 13.8651C42.7878 12.8974 42.5361 11.9145 41.9495 11.1325L39.7847 8.25307L43.7139 5.30614L45.8725 8.18308C47.0931 9.81079 49.402 10.1409 51.0295 8.92042C51.8111 8.33441 52.3278 7.46185 52.4663 6.49474L52.9746 2.93387L57.8358 3.62762L57.3275 7.18849C57.0399 9.20253 58.4393 11.0683 60.4534 11.3559C61.4205 11.4941 62.4029 11.2424 63.1845 10.656L66.0614 8.49864L69.0083 12.4279L66.1314 14.5865C64.5037 15.807 64.1736 18.1159 65.3941 19.7435C65.9801 20.525 66.8526 21.0418 67.8198 21.1802L71.3806 21.6886L70.682 26.5485Z" fill="white"/>
<path d="M52.799 11.6912C47.3739 11.6912 42.976 16.0891 42.976 21.5142C42.976 26.9393 47.3739 31.3373 52.799 31.3373C58.2241 31.3373 62.6221 26.9393 62.6221 21.5142C62.616 16.0916 58.2217 11.6971 52.799 11.6912ZM52.799 28.8815C48.7301 28.8815 45.4317 25.5831 45.4317 21.5142C45.4317 17.4453 48.7301 14.1469 52.799 14.1469C56.8679 14.1469 60.1663 17.4453 60.1663 21.5142C60.1616 25.5811 56.8659 28.8768 52.799 28.8815Z" fill="white"/>
<path d="M38.3886 54.3428H35.9329V58.0264H38.3886V54.3428Z" fill="white"/>
<path d="M31.79 42.2838C24.2101 39.3227 20.4658 30.7776 23.427 23.1977C24.5744 20.2606 26.6338 17.769 29.3023 16.0893L27.9897 14.0117C19.9568 19.0723 17.5473 29.6866 22.6078 37.7194C24.5677 40.8304 27.4735 43.2311 30.8985 44.5688C33.9302 45.7304 35.9321 48.6405 35.9328 51.887H38.3886C38.3925 47.6275 35.7675 43.8074 31.79 42.2838Z" fill="white"/>
<path d="M69.0857 45.7476H60.4905V48.2033H69.0857V45.7476Z" fill="white"/>
<path d="M60.0488 52.1708L58.4769 54.0576L65.8447 60.196L67.4166 58.3093L60.0488 52.1708Z" fill="white"/>
<path d="M55.5789 55.5708H53.1232V64.166H55.5789V55.5708Z" fill="white"/>
<path d="M11.0762 18.7705L1.25378 21.2258L1.84901 23.607L11.6714 21.1516L11.0762 18.7705Z" fill="white"/>
<path d="M4.72004 6.68585L3.29346 8.68311L11.888 14.8219L13.3145 12.8246L4.72004 6.68585Z" fill="white"/>
<path d="M16.1934 0.0101143L13.8142 0.618408L16.3256 10.4407L18.7047 9.83243L16.1934 0.0101143Z" fill="white"/>
</g>
<defs>
<clipPath id="clip0">
<rect width="74" height="74" fill="white"/>
</clipPath>
</defs>
</svg>
