<svg width="90" height="90" viewBox="0 0 90 90" fill="none" xmlns="http://www.w3.org/2000/svg">
<circle cx="45" cy="45" r="45" fill="#FF5C00"/>
<path d="M19.061 73.8425C19.647 73.8425 20.122 73.3675 20.122 72.7815C20.122 72.1955 19.647 71.7205 19.061 71.7205C18.475 71.7205 18 72.1955 18 72.7815C18 73.3675 18.475 73.8425 19.061 73.8425Z" fill="white"/>
<path d="M46.1607 46.9313C46.7456 46.9313 47.2196 46.4572 47.2196 45.8724C47.2196 45.2876 46.7456 44.8135 46.1607 44.8135C45.5759 44.8135 45.1018 45.2876 45.1018 45.8724C45.1018 46.4572 45.5759 46.9313 46.1607 46.9313Z" fill="white"/>
<path d="M60.0272 32.4487C59.1759 31.5974 58.0441 31.1287 56.8403 31.1287C55.6365 31.1287 54.5046 31.5976 53.6535 32.4487C51.8962 34.206 51.8962 37.0653 53.6535 38.8225C54.5322 39.7012 55.6861 40.1404 56.8403 40.1404C57.9942 40.1404 59.1486 39.701 60.0272 38.8225C61.7844 37.0652 61.7844 34.2059 60.0272 32.4487ZM58.5298 37.325C57.5982 38.2565 56.0823 38.2565 55.1509 37.325C54.2193 36.3935 54.2193 34.8777 55.1509 33.9461C55.6022 33.4948 56.2021 33.2463 56.8403 33.2463C57.4785 33.2463 58.0784 33.4948 58.5297 33.9461C59.4613 34.8777 59.4613 36.3935 58.5298 37.325Z" fill="white"/>
<path d="M31.2268 63.3952C30.7032 63.1345 30.0677 63.3476 29.8069 63.8711L28.5457 66.4039C27.9973 67.5051 26.8943 68.2415 25.6669 68.3255L24.2 68.4259C23.952 68.4424 23.789 68.3189 23.7136 68.2435C23.6382 68.1681 23.5143 68.0047 23.5312 67.757L23.6316 66.2902C23.7157 65.0629 24.4521 63.9598 25.5532 63.4113L28.0859 62.1501C28.6094 61.8894 28.8225 61.2538 28.5618 60.7303C28.3012 60.2069 27.6655 59.9937 27.1419 60.2544L24.6092 61.5156C22.8382 62.3976 21.654 64.1716 21.5188 66.1455L21.4184 67.6123C21.3641 68.404 21.6548 69.1799 22.2159 69.741C22.7325 70.2575 23.4312 70.5451 24.1569 70.5451C24.2192 70.5451 24.2819 70.5429 24.3446 70.5386L25.8115 70.4382C27.7854 70.3031 29.5594 69.119 30.4413 67.3478L31.7025 64.815C31.9632 64.2915 31.7502 63.6559 31.2268 63.3952Z" fill="white"/>
<path d="M71.2692 20.8627C70.7723 20.3732 70.0878 20.1172 69.3926 20.1625L68.4067 20.2253C59.5664 20.7897 51.2931 25.0569 45.7082 31.9328L43.3874 34.7899L37.3142 34.6115C37.3039 34.6112 37.2934 34.6111 37.2832 34.6111C32.4666 34.6111 27.9383 36.4867 24.5324 39.8926L18.3121 46.113C18.0162 46.4088 17.9223 46.8513 18.0725 47.2417C18.2226 47.6323 18.5886 47.8979 19.0065 47.9192L32.1737 48.5956L31.6368 49.2566C31.3663 49.5898 31.3235 50.0532 31.5286 50.4302C31.7349 50.8094 31.9511 51.1827 32.1766 51.5499L29.0541 55.2568C28.7872 55.5738 28.7297 56.0174 28.9068 56.392C29.5888 57.8332 30.4941 59.1282 31.5977 60.2409C32.7281 61.3808 34.0499 62.3129 35.5263 63.0117C35.6706 63.08 35.8253 63.1134 35.9791 63.1134C36.2175 63.1134 36.454 63.0329 36.6464 62.8769C37.3191 62.3312 38.0946 61.6839 38.8447 61.0581C39.3793 60.6119 39.9263 60.1556 40.4375 59.7347C40.7426 59.9184 41.0515 60.0964 41.3651 60.2669C41.5237 60.3532 41.6976 60.3957 41.8709 60.3957C42.1014 60.3957 42.3305 60.3206 42.5202 60.1734L43.2419 59.6133L43.9213 72.836C43.9428 73.2539 44.2083 73.6198 44.5987 73.77C44.7224 73.8175 44.8508 73.8407 44.9784 73.8407C45.2542 73.8407 45.5251 73.7328 45.7274 73.5304L51.9478 67.3099C55.3537 63.904 57.2293 59.3758 57.2293 54.5592V48.7589L59.6832 46.8547C67.0375 41.1477 71.5164 32.5421 71.9716 23.2442L71.9968 22.7289C72.0312 22.0323 71.7659 21.3523 71.2692 20.8627ZM21.4934 45.9265L26.0299 41.3901C29.0321 38.3879 33.0228 36.7329 37.2679 36.7288L41.7066 36.8592L33.827 46.5602L21.4934 45.9265ZM37.4879 59.432C36.9352 59.8932 36.3685 60.3661 35.8426 60.7986C34.8255 60.2477 33.9053 59.5604 33.1013 58.7496C32.3225 57.9643 31.6596 57.0703 31.1251 56.0854L33.4112 53.3714C34.1025 54.2988 34.8591 55.1772 35.6765 56.0002C35.6771 56.0008 35.6778 56.0014 35.6784 56.002C35.6786 56.0022 35.6788 56.0025 35.679 56.0027C35.6793 56.003 35.6797 56.0033 35.68 56.0036C36.5863 56.9157 37.5611 57.7527 38.5952 58.5096C38.2301 58.8127 37.856 59.1249 37.4879 59.432ZM55.1119 54.5592C55.1119 58.8101 53.4566 62.8065 50.4506 65.8125L45.9142 70.3489L45.2811 58.031L55.1118 50.4024V54.5592H55.1119ZM69.8568 23.1407C69.4318 31.8205 65.2506 39.8541 58.3852 45.1816L41.7781 58.0688C40.4009 57.264 39.1172 56.3139 37.9424 55.2373L43.5413 49.6384C43.9547 49.225 43.9547 48.5544 43.5413 48.1409C43.1278 47.7273 42.4573 47.7273 42.0438 48.1409L36.4501 53.7345C35.4217 52.596 34.5108 51.3571 33.7353 50.0321L47.352 33.2679C52.5655 26.8492 60.2888 22.8656 68.5415 22.3389L69.5274 22.2761C69.6566 22.2681 69.7431 22.3322 69.7829 22.3714C69.8227 22.4105 69.8884 22.4957 69.8821 22.6255L69.8568 23.1407Z" fill="white"/>
</svg>
