<svg width="90" height="90" viewBox="0 0 90 90" fill="none" xmlns="http://www.w3.org/2000/svg">
<circle cx="45" cy="45" r="45" fill="#08C0E1"/>
<path d="M70.1486 72.4594H20.8513C20.2385 72.4594 19.6507 72.216 19.2173 71.7826C18.784 71.3493 18.5405 70.7615 18.5405 70.1486V61.5832C18.5405 61.3789 18.6217 61.183 18.7661 61.0386C18.9106 60.8941 19.1065 60.813 19.3108 60.813C19.5151 60.813 19.711 60.8941 19.8555 61.0386C19.9999 61.183 20.0811 61.3789 20.0811 61.5832V70.1486C20.0811 70.3529 20.1622 70.5488 20.3067 70.6933C20.4511 70.8377 20.647 70.9189 20.8513 70.9189H70.1486C70.3529 70.9189 70.5489 70.8377 70.6933 70.6933C70.8378 70.5488 70.9189 70.3529 70.9189 70.1486V20.8513C70.9189 20.647 70.8378 20.4511 70.6933 20.3067C70.5489 20.1622 70.3529 20.0811 70.1486 20.0811H20.8513C20.647 20.0811 20.4511 20.1622 20.3067 20.3067C20.1622 20.4511 20.0811 20.647 20.0811 20.8513V40.8784C20.0811 41.0827 19.9999 41.2786 19.8555 41.423C19.711 41.5675 19.5151 41.6486 19.3108 41.6486C19.1065 41.6486 18.9106 41.5675 18.7661 41.423C18.6217 41.2786 18.5405 41.0827 18.5405 40.8784V20.8513C18.5405 20.2385 18.784 19.6507 19.2173 19.2173C19.6507 18.784 20.2385 18.5405 20.8513 18.5405H70.1486C70.7615 18.5405 71.3493 18.784 71.7826 19.2173C72.216 19.6507 72.4594 20.2385 72.4594 20.8513V70.1486C72.4594 70.7615 72.216 71.3493 71.7826 71.7826C71.3493 72.216 70.7615 72.4594 70.1486 72.4594Z" fill="white"/>
<path d="M19.3108 56.9539C19.1065 56.9539 18.9106 56.8728 18.7661 56.7283C18.6217 56.5839 18.5405 56.3879 18.5405 56.1837V53.9268C18.5405 53.7225 18.6217 53.5266 18.7661 53.3821C18.9106 53.2376 19.1065 53.1565 19.3108 53.1565C19.5151 53.1565 19.711 53.2376 19.8555 53.3821C19.9999 53.5266 20.0811 53.7225 20.0811 53.9268V56.1837C20.0811 56.3879 19.9999 56.5839 19.8555 56.7283C19.711 56.8728 19.5151 56.9539 19.3108 56.9539Z" fill="white"/>
<path d="M19.3108 49.3051C19.1065 49.3051 18.9106 49.224 18.7661 49.0795C18.6217 48.9351 18.5405 48.7392 18.5405 48.5349V46.2703C18.5405 46.066 18.6217 45.8701 18.7661 45.7256C18.9106 45.5812 19.1065 45.5 19.3108 45.5C19.5151 45.5 19.711 45.5812 19.8555 45.7256C19.9999 45.8701 20.0811 46.066 20.0811 46.2703V48.5349C20.0811 48.7392 19.9999 48.9351 19.8555 49.0795C19.711 49.224 19.5151 49.3051 19.3108 49.3051Z" fill="white"/>
<path d="M71.6892 31.6351H19.3108C19.1065 31.6351 18.9106 31.554 18.7661 31.4095C18.6217 31.2651 18.5405 31.0692 18.5405 30.8649C18.5405 30.6606 18.6217 30.4647 18.7661 30.3202C18.9106 30.1758 19.1065 30.0946 19.3108 30.0946H71.6892C71.8935 30.0946 72.0894 30.1758 72.2338 30.3202C72.3783 30.4647 72.4594 30.6606 72.4594 30.8649C72.4594 31.0692 72.3783 31.2651 72.2338 31.4095C72.0894 31.554 71.8935 31.6351 71.6892 31.6351Z" fill="white"/>
<path d="M64.9439 27.9779C64.3725 27.9771 63.8141 27.807 63.3394 27.4889C62.8646 27.1709 62.4948 26.7193 62.2766 26.1911C62.0585 25.663 62.0018 25.082 62.1137 24.5216C62.2257 23.9613 62.5012 23.4467 62.9056 23.0429C63.3099 22.6391 63.8249 22.3642 64.3854 22.253C64.9459 22.1418 65.5268 22.1993 66.0546 22.4181C66.5825 22.637 67.0336 23.0074 67.351 23.4826C67.6684 23.9578 67.8378 24.5164 67.8378 25.0878C67.837 25.8547 67.5317 26.5899 66.9891 27.1318C66.4464 27.6738 65.7108 27.9781 64.9439 27.9779ZM64.9439 23.7414C64.6771 23.7421 64.4164 23.822 64.1949 23.9709C63.9734 24.1198 63.8011 24.331 63.6996 24.5778C63.5981 24.8247 63.5721 25.096 63.6249 25.3577C63.6777 25.6193 63.8068 25.8594 63.996 26.0476C64.1852 26.2358 64.4259 26.3637 64.6878 26.4151C64.9497 26.4665 65.2209 26.4391 65.4672 26.3364C65.7136 26.2337 65.9239 26.0602 66.0716 25.838C66.2194 25.6157 66.2979 25.3547 66.2973 25.0878C66.2971 24.9103 66.2619 24.7346 66.1938 24.5707C66.1257 24.4068 66.0259 24.258 65.9002 24.1326C65.7745 24.0073 65.6254 23.908 65.4613 23.8403C65.2972 23.7727 65.1214 23.738 64.9439 23.7383V23.7414Z" fill="white"/>
<path d="M57.0864 27.9779C56.5148 27.978 55.9559 27.8086 55.4806 27.4912C55.0052 27.1737 54.6346 26.7224 54.4158 26.1943C54.1969 25.6662 54.1396 25.0851 54.251 24.5245C54.3624 23.9638 54.6376 23.4488 55.0418 23.0445C55.4459 22.6402 55.9609 22.3649 56.5215 22.2533C57.0822 22.1418 57.6633 22.199 58.1914 22.4177C58.7196 22.6364 59.171 23.0068 59.4886 23.4821C59.8062 23.9574 59.9757 24.5162 59.9757 25.0878C59.9749 25.8539 59.6702 26.5884 59.1286 27.1302C58.5869 27.672 57.8525 27.9768 57.0864 27.9779ZM57.0864 23.7414C56.8193 23.7412 56.5582 23.8203 56.3361 23.9687C56.114 24.117 55.9409 24.3279 55.8388 24.5746C55.7366 24.8214 55.7099 25.0929 55.7622 25.3548C55.8144 25.6167 55.9432 25.8573 56.1322 26.046C56.3212 26.2346 56.562 26.363 56.824 26.4148C57.086 26.4666 57.3574 26.4395 57.604 26.3369C57.8506 26.2343 58.0612 26.0608 58.2092 25.8385C58.3571 25.6161 58.4358 25.3549 58.4351 25.0878C58.4347 24.7302 58.2925 24.3873 58.0397 24.1343C57.7869 23.8813 57.4441 23.7389 57.0864 23.7383V23.7414Z" fill="white"/>
<path d="M49.2281 27.9779C48.6565 27.9779 48.0978 27.8084 47.6225 27.4908C47.1472 27.1732 46.7768 26.7219 46.5581 26.1938C46.3393 25.6657 46.2821 25.0846 46.3936 24.524C46.5051 23.9634 46.7804 23.4484 47.1845 23.0442C47.5887 22.6401 48.1037 22.3648 48.6643 22.2533C49.2249 22.1418 49.806 22.199 50.3341 22.4177C50.8622 22.6365 51.3135 23.0069 51.6311 23.4822C51.9487 23.9574 52.1182 24.5162 52.1182 25.0878C52.1174 25.854 51.8126 26.5887 51.2708 27.1305C50.729 27.6723 49.9944 27.977 49.2281 27.9779ZM49.2281 23.7414C48.9611 23.7414 48.7 23.8206 48.478 23.969C48.2561 24.1175 48.0831 24.3284 47.981 24.5752C47.879 24.8219 47.8524 25.0934 47.9048 25.3553C47.9571 25.6172 48.0859 25.8576 48.275 26.0462C48.464 26.2348 48.7047 26.3631 48.9667 26.4148C49.2287 26.4666 49.5002 26.4394 49.7467 26.3368C49.9932 26.2342 50.2038 26.0607 50.3517 25.8384C50.4996 25.6161 50.5782 25.3548 50.5776 25.0878C50.577 24.7301 50.4346 24.3872 50.1817 24.1342C49.9287 23.8813 49.5858 23.7389 49.2281 23.7383V23.7414Z" fill="white"/>
<path d="M42.3419 25.8582H23.9363C23.732 25.8582 23.5361 25.777 23.3916 25.6326C23.2472 25.4881 23.166 25.2922 23.166 25.0879C23.166 24.8836 23.2472 24.6877 23.3916 24.5432C23.5361 24.3988 23.732 24.3176 23.9363 24.3176H42.3419C42.5462 24.3176 42.7421 24.3988 42.8865 24.5432C43.031 24.6877 43.1122 24.8836 43.1122 25.0879C43.1122 25.2922 43.031 25.4881 42.8865 25.6326C42.7421 25.777 42.5462 25.8582 42.3419 25.8582Z" fill="white"/>
<path d="M52.5973 56.3539C52.4395 56.3541 52.2855 56.3059 52.156 56.2158C52.0266 56.1256 51.9279 55.9979 51.8734 55.8499C51.8189 55.7018 51.8111 55.5406 51.8512 55.388C51.8912 55.2355 51.9772 55.0988 52.0974 54.9967L57.3745 50.5068L52.0974 46.0169C51.9417 45.8841 51.8452 45.6949 51.829 45.4909C51.8128 45.287 51.8783 45.0849 52.0111 44.9293C52.1439 44.7736 52.3331 44.677 52.537 44.6609C52.741 44.6447 52.9431 44.7102 53.0987 44.843L59.0652 49.9198C59.1503 49.9921 59.2187 50.0821 59.2655 50.1834C59.3124 50.2848 59.3367 50.3951 59.3367 50.5068C59.3367 50.6184 59.3124 50.7288 59.2655 50.8301C59.2187 50.9315 59.1503 51.0214 59.0652 51.0937L53.0987 56.1706C52.9588 56.2895 52.7809 56.3545 52.5973 56.3539Z" fill="white"/>
<path d="M38.4027 56.3539C38.2201 56.3538 38.0435 56.2888 37.9044 56.1706L31.9379 51.0937C31.8528 51.0214 31.7844 50.9315 31.7375 50.8301C31.6907 50.7288 31.6664 50.6184 31.6664 50.5068C31.6664 50.3951 31.6907 50.2848 31.7375 50.1834C31.7844 50.0821 31.8528 49.9921 31.9379 49.9198L37.9044 44.843C38.06 44.7102 38.2621 44.6447 38.4661 44.6609C38.67 44.677 38.8592 44.7736 38.992 44.9293C39.1248 45.0849 39.1903 45.287 39.1741 45.4909C39.1579 45.6949 39.0614 45.8841 38.9057 46.0169L33.6255 50.5068L38.9026 54.9967C39.0229 55.0988 39.1088 55.2355 39.1489 55.388C39.1889 55.5406 39.1812 55.7018 39.1266 55.8499C39.0721 55.9979 38.9734 56.1256 38.844 56.2158C38.7145 56.3059 38.5605 56.3541 38.4027 56.3539Z" fill="white"/>
<path d="M41.3567 62.446C41.2653 62.4459 41.1745 62.4298 41.0887 62.3982C40.9938 62.363 40.9068 62.3094 40.8327 62.2406C40.7586 62.1717 40.6987 62.0889 40.6566 61.9969C40.6145 61.9049 40.5909 61.8056 40.5872 61.7044C40.5835 61.6033 40.5997 61.5025 40.635 61.4077L48.9208 39.0698C48.9923 38.8783 49.1369 38.723 49.3229 38.6382C49.5089 38.5533 49.721 38.5458 49.9125 38.6173C50.104 38.6888 50.2593 38.8334 50.3441 39.0194C50.429 39.2054 50.4365 39.4175 50.365 39.609L42.0792 61.9468C42.024 62.0937 41.9252 62.2203 41.7961 62.3095C41.6669 62.3987 41.5137 62.4463 41.3567 62.446Z" fill="white"/>
</svg>
