<svg width="83" height="87" viewBox="0 0 83 87" fill="none" xmlns="http://www.w3.org/2000/svg">
<path d="M61.5965 27.4712C62.268 27.4712 62.8123 26.9006 62.8123 26.1968C62.8123 25.4929 62.268 24.9224 61.5965 24.9224C60.925 24.9224 60.3807 25.4929 60.3807 26.1968C60.3807 26.9006 60.925 27.4712 61.5965 27.4712Z" fill="white"/>
<path d="M61.5965 33.0477C62.268 33.0477 62.8123 32.4772 62.8123 31.7733C62.8123 31.0695 62.268 30.4989 61.5965 30.4989C60.925 30.4989 60.3807 31.0695 60.3807 31.7733C60.3807 32.4772 60.925 33.0477 61.5965 33.0477Z" fill="white"/>
<path d="M61.5965 38.6244C62.268 38.6244 62.8123 38.0538 62.8123 37.35C62.8123 36.6461 62.268 36.0756 61.5965 36.0756C60.925 36.0756 60.3807 36.6461 60.3807 37.35C60.3807 38.0538 60.925 38.6244 61.5965 38.6244Z" fill="white"/>
<path d="M9.03223 6.85852C7.0211 6.85852 5.38477 8.57371 5.38477 10.6818C5.38477 12.7898 7.0211 14.505 9.03223 14.505C11.0434 14.505 12.6797 12.79 12.6797 10.6818C12.6797 8.57354 11.0434 6.85852 9.03223 6.85852ZM9.03223 11.9562C8.36174 11.9562 7.81641 11.3844 7.81641 10.6818C7.81641 9.97914 8.36174 9.40735 9.03223 9.40735C9.70271 9.40735 10.248 9.97914 10.248 10.6818C10.248 11.3844 9.70271 11.9562 9.03223 11.9562Z" fill="white"/>
<path d="M22.654 10.6818C22.654 8.57371 21.0177 6.85852 19.0065 6.85852C16.9954 6.85852 15.3591 8.57371 15.3591 10.6818C15.3591 12.7898 16.9954 14.505 19.0065 14.505C21.0177 14.505 22.654 12.79 22.654 10.6818ZM17.7907 10.6818C17.7907 9.97914 18.336 9.40735 19.0065 9.40735C19.677 9.40735 20.2223 9.97914 20.2223 10.6818C20.2223 11.3844 19.677 11.9562 19.0065 11.9562C18.336 11.9562 17.7907 11.3844 17.7907 10.6818Z" fill="white"/>
<path d="M32.6282 10.6818C32.6282 8.57371 30.9919 6.85852 28.9808 6.85852C26.9696 6.85852 25.3333 8.57371 25.3333 10.6818C25.3333 12.7898 26.9696 14.505 28.9808 14.505C30.9921 14.505 32.6282 12.79 32.6282 10.6818ZM27.765 10.6818C27.765 9.97914 28.3103 9.40735 28.9808 9.40735C29.6513 9.40735 30.1966 9.97914 30.1966 10.6818C30.1966 11.3844 29.6513 11.9562 28.9808 11.9562C28.3105 11.9562 27.765 11.3844 27.765 10.6818Z" fill="white"/>
<path d="M79.3525 0.994507H16.3272C15.6556 0.994507 15.1114 1.5651 15.1114 2.26892C15.1114 2.97274 15.6556 3.54333 16.3272 3.54333H38.4165V18.2508H2.43164V4.81775C2.43164 4.11512 2.97698 3.54333 3.64746 3.54333H11.4639C12.1355 3.54333 12.6797 2.97274 12.6797 2.26892C12.6797 1.5651 12.1355 0.994507 11.4639 0.994507H3.64746C1.63633 0.994507 0 2.70953 0 4.81775V82.2063C0 84.3145 1.63633 86.0295 3.64746 86.0295H49.9062C50.5778 86.0295 51.122 85.4589 51.122 84.7551C51.122 84.0513 50.5778 83.4807 49.9062 83.4807H30.8236V44.7864H80.5684V82.2063C80.5684 82.9089 80.023 83.4807 79.3525 83.4807H54.7695C54.0978 83.4807 53.5536 84.0513 53.5536 84.7551C53.5536 85.4589 54.0978 86.0295 54.7695 86.0295H79.3525C81.3637 86.0295 83 84.3145 83 82.2063V4.81775C83 2.70953 81.3637 0.994507 79.3525 0.994507ZM40.8482 3.54333H79.3525C80.023 3.54333 80.5684 4.11512 80.5684 4.81775V18.2508H40.8482V3.54333ZM3.64746 83.4807C2.97698 83.4807 2.43164 82.9089 2.43164 82.2063V20.7996H28.392V83.4807H3.64746ZM55.9853 42.2376V38.3377C55.9853 37.6339 55.4411 37.0633 54.7695 37.0633C54.0978 37.0633 53.5536 37.6339 53.5536 38.3377V42.2376H50.3197V34.7711C50.3197 34.0672 49.7754 33.4967 49.1039 33.4967C48.4323 33.4967 47.8881 34.0672 47.8881 34.7711V42.2376H44.6543V30.7364C44.6543 30.0326 44.1101 29.462 43.4385 29.462C42.7669 29.462 42.2227 30.0326 42.2227 30.7364V42.2376H38.9889V26.1968C38.9889 25.493 38.4447 24.9224 37.7731 24.9224C37.1015 24.9224 36.5573 25.493 36.5573 26.1968V42.2376H30.8236V20.7996H80.5684V42.2376H55.9853Z" fill="white"/>
<path d="M70.166 9.40735H49.5883C48.9167 9.40735 48.3725 9.97795 48.3725 10.6818C48.3725 11.3856 48.9167 11.9562 49.5883 11.9562H70.1661C70.8378 11.9562 71.382 11.3856 71.382 10.6818C71.382 9.97795 70.8376 9.40735 70.166 9.40735Z" fill="white"/>
<path d="M21.8823 27.5012H8.90743C7.52285 27.5012 6.39651 28.6818 6.39651 30.1331V33.4136C6.39651 34.8649 7.52285 36.0455 8.90743 36.0455H21.8823C23.2669 36.0455 24.3932 34.8649 24.3932 33.4136V30.1331C24.3934 28.6819 23.2669 27.5012 21.8823 27.5012ZM21.9618 33.4136C21.9618 33.4595 21.9261 33.4967 21.8825 33.4967H8.90743C8.86366 33.4967 8.82816 33.4595 8.82816 33.4136V30.1331C8.82816 30.0872 8.86382 30.05 8.90743 30.05H21.8823C21.9261 30.05 21.9616 30.0872 21.9616 30.1331V33.4136H21.9618Z" fill="white"/>
<path d="M21.8823 41.0368H8.90743C7.52285 41.0368 6.39651 42.2174 6.39651 43.6687V46.9492C6.39651 48.4005 7.52285 49.5812 8.90743 49.5812H21.8823C23.2669 49.5812 24.3932 48.4005 24.3932 46.9492V43.6687C24.3934 42.2174 23.2669 41.0368 21.8823 41.0368ZM21.9618 46.9492C21.9618 46.9951 21.9261 47.0323 21.8825 47.0323H8.90743C8.86366 47.0323 8.82816 46.9951 8.82816 46.9492V43.6687C8.82816 43.6228 8.86382 43.5856 8.90743 43.5856H21.8823C21.9261 43.5856 21.9616 43.6228 21.9616 43.6687V46.9492H21.9618Z" fill="white"/>
<path d="M21.8823 54.5722H8.90743C7.52285 54.5722 6.39651 55.7528 6.39651 57.2041V60.4846C6.39651 61.9359 7.52285 63.1166 8.90743 63.1166H21.8823C23.2669 63.1166 24.3932 61.9359 24.3932 60.4846V57.2043C24.3934 55.753 23.2669 54.5722 21.8823 54.5722ZM21.9618 60.4846C21.9618 60.5305 21.9261 60.5677 21.8825 60.5677H8.90743C8.86366 60.5677 8.82816 60.5303 8.82816 60.4846V57.2043C8.82816 57.1584 8.86382 57.1212 8.90743 57.1212H21.8823C21.9261 57.1212 21.9616 57.1586 21.9616 57.2043V60.4846H21.9618Z" fill="white"/>
<path d="M21.8823 68.1079H8.90743C7.52285 68.1079 6.39651 69.2885 6.39651 70.7398V74.0203C6.39651 75.4716 7.52285 76.6523 8.90743 76.6523H21.8823C23.2669 76.6523 24.3932 75.4716 24.3932 74.0203V70.7398C24.3934 69.2885 23.2669 68.1079 21.8823 68.1079ZM21.9618 74.0203C21.9618 74.0662 21.9261 74.1034 21.8825 74.1034H8.90743C8.86366 74.1034 8.82816 74.0661 8.82816 74.0203V70.7398C8.82816 70.694 8.86382 70.6567 8.90743 70.6567H21.8823C21.9261 70.6567 21.9616 70.694 21.9616 70.7398V74.0203H21.9618Z" fill="white"/>
<path d="M44.8278 50.8732H40.3601C38.9782 50.8732 37.854 52.0516 37.854 53.4999V76.1844H34.9589C34.2873 76.1844 33.7431 76.755 33.7431 77.4589C33.7431 78.1627 34.2873 78.7333 34.9589 78.7333H76.2712C76.9428 78.7333 77.487 78.1627 77.487 77.4589C77.487 76.755 76.9428 76.1844 76.2712 76.1844H73.3761V67.0936C73.3761 65.6452 72.2518 64.467 70.8702 64.467H66.4023C65.0206 64.467 63.8964 65.6454 63.8964 67.0936V76.1844H60.3549V60.2968C60.3549 58.8483 59.2307 57.6701 57.8489 57.6701H53.381C51.9993 57.6701 50.8751 58.8485 50.8751 60.2968V76.1844H47.3337V53.4999C47.3337 52.0515 46.2096 50.8732 44.8278 50.8732ZM40.2856 76.1844V53.4999C40.2856 53.4569 40.319 53.4221 40.3601 53.4221H44.8278C44.8688 53.4221 44.902 53.4571 44.902 53.4999V76.1844H40.2856ZM66.3277 67.0936C66.3277 67.0506 66.3609 67.0158 66.402 67.0158H70.8699C70.9109 67.0158 70.9441 67.0508 70.9441 67.0936V76.1844H66.3275V67.0936H66.3277ZM53.3068 60.2968C53.3068 60.2538 53.34 60.2189 53.381 60.2189H57.8489C57.8899 60.2189 57.9233 60.2539 57.9233 60.2968V76.1844H53.3068V60.2968Z" fill="white"/>
<path d="M65.6899 27.4712H74.8555C75.5271 27.4712 76.0713 26.9006 76.0713 26.1968C76.0713 25.493 75.5271 24.9224 74.8555 24.9224H65.6899C65.0185 24.9224 64.4741 25.493 64.4741 26.1968C64.4741 26.9006 65.0183 27.4712 65.6899 27.4712Z" fill="white"/>
<path d="M74.8555 30.4989H65.6899C65.0185 30.4989 64.4741 31.0695 64.4741 31.7733C64.4741 32.4771 65.0185 33.0477 65.6899 33.0477H74.8555C75.5271 33.0477 76.0713 32.4771 76.0713 31.7733C76.0713 31.0695 75.5269 30.4989 74.8555 30.4989Z" fill="white"/>
<path d="M74.8555 36.0756H65.6899C65.0185 36.0756 64.4741 36.6462 64.4741 37.35C64.4741 38.0538 65.0185 38.6244 65.6899 38.6244H74.8555C75.5271 38.6244 76.0713 38.0538 76.0713 37.35C76.0713 36.6462 75.5269 36.0756 74.8555 36.0756Z" fill="white"/>
</svg>
