<svg width="90" height="90" viewBox="0 0 90 90" fill="none" xmlns="http://www.w3.org/2000/svg">
<circle cx="45" cy="45" r="45" fill="#004F9F"/>
<g clip-path="url(#clip0)">
<path d="M44.5001 19.0858C45.011 19.0858 45.425 18.6717 45.425 18.1608V11.925C45.425 11.414 45.011 11 44.5001 11C43.9891 11 43.5751 11.414 43.5751 11.925V18.1608C43.5751 18.6717 43.9891 19.0858 44.5001 19.0858V19.0858Z" fill="white"/>
<path d="M27.2428 25.6923C27.6041 26.0534 28.1896 26.0534 28.5509 25.6923C28.9121 25.3309 28.9121 24.7454 28.5509 24.3842L24.1414 19.9746C23.7802 19.6136 23.1946 19.6133 22.8333 19.9746C22.4721 20.3359 22.4721 20.9215 22.8333 21.2827L27.2428 25.6923Z" fill="white"/>
<path d="M21.0196 40.7163H14.7837C14.2727 40.7163 13.8587 41.1303 13.8587 41.6413C13.8587 42.1522 14.2727 42.5662 14.7837 42.5662H21.0195C21.5305 42.5662 21.9445 42.1522 21.9445 41.6413C21.9445 41.1303 21.5305 40.7163 21.0196 40.7163V40.7163Z" fill="white"/>
<path d="M27.2428 57.5902L22.8333 61.9997C22.4721 62.361 22.4721 62.9466 22.8333 63.3078C23.1946 63.6689 23.7801 63.6689 24.1414 63.3078L28.5509 58.8983C28.9121 58.537 28.9121 57.9514 28.5509 57.5902C28.1897 57.2292 27.6041 57.2292 27.2428 57.5902Z" fill="white"/>
<path d="M61.7573 57.5902C61.3959 57.2291 60.8103 57.2291 60.4491 57.5902C60.0879 57.9515 60.0879 58.5371 60.4491 58.8983L64.8586 63.3078C65.2199 63.6689 65.8054 63.6689 66.1667 63.3078C66.5279 62.9464 66.5279 62.3609 66.1667 61.9996L61.7573 57.5902Z" fill="white"/>
<path d="M74.2163 40.7163H67.9805C67.4695 40.7163 67.0555 41.1303 67.0555 41.6413C67.0555 42.1522 67.4695 42.5662 67.9805 42.5662H74.2163C74.7273 42.5662 75.1413 42.1522 75.1413 41.6413C75.1413 41.1303 74.7271 40.7163 74.2163 40.7163Z" fill="white"/>
<path d="M64.8586 19.9746L60.4491 24.3842C60.0879 24.7455 60.0879 25.3311 60.4491 25.6923C60.8105 26.0534 61.3959 26.0534 61.7573 25.6923L66.1667 21.2827C66.5279 20.9214 66.5279 20.3358 66.1667 19.9746C65.8054 19.6135 65.2198 19.6135 64.8586 19.9746V19.9746Z" fill="white"/>
<path d="M62.7726 39.7715C62.7726 29.5511 54.5756 21.2362 44.5001 21.2362C40.9707 21.2362 37.5451 22.259 34.5939 24.1939C31.7225 26.0765 29.4336 28.7249 27.9745 31.8529C27.7585 32.3159 27.9588 32.8663 28.4217 33.0822C28.885 33.2984 29.4351 33.0979 29.651 32.635C32.3567 26.8343 38.1853 23.0861 44.5001 23.0861C53.5555 23.0861 60.9227 30.5711 60.9227 39.7715C60.9227 44.1415 59.2713 48.273 56.2729 51.4047C54.5448 53.2096 53.0737 54.9342 52.6952 57.3507H36.5468C36.0699 54.8421 34.3587 53.0821 32.821 51.5019C29.7621 48.3582 28.0775 44.1922 28.0775 39.7715C28.0775 38.68 28.1819 37.5883 28.3878 36.5265C28.4851 36.0251 28.1574 35.5397 27.6558 35.4424C27.1543 35.3458 26.6689 35.6729 26.5716 36.1744C26.3432 37.3518 26.2275 38.5621 26.2275 39.7715C26.2275 44.6769 28.0983 49.3011 31.4952 52.792C33.4462 54.7968 34.8272 56.3971 34.8272 58.7427C34.8272 58.7509 34.8273 58.7592 34.8276 58.7674L34.8806 64.1954C34.8806 65.9564 35.82 67.5021 37.2238 68.358V69.3752C37.2238 71.9254 39.2985 74 41.8486 74H47.5217C50.0719 74 52.1465 71.9254 52.1465 69.3752V68.358C53.5504 67.5021 54.4897 65.9564 54.4897 64.1954C54.4897 64.1954 54.4832 58.1491 54.4709 58.0888C54.6464 55.9451 55.9458 54.4214 57.6092 52.684C60.9387 49.2063 62.7726 44.6204 62.7726 39.7715V39.7715ZM50.2965 69.3752C50.2965 70.9052 49.0516 72.1501 47.5216 72.1501H41.8485C40.3185 72.1501 39.0736 70.9052 39.0736 69.3752V69.0186C39.2955 69.0497 39.5217 69.0669 39.7519 69.0669H49.6182C49.8484 69.0669 50.0746 69.0496 50.2965 69.0186V69.3752ZM49.6182 67.2169H39.7519C38.0858 67.2169 36.7304 65.8616 36.7304 64.1954V64.1338H46.1033C46.6143 64.1338 47.0283 63.7197 47.0283 63.2088C47.0283 62.6978 46.6143 62.2838 46.1033 62.2838H36.7304V59.2006H52.6111L52.6397 62.2838H50.4198C49.9089 62.2838 49.4948 62.6978 49.4948 63.2088C49.4948 63.7197 49.9089 64.1338 50.4198 64.1338H52.6397V64.1954C52.6397 65.8616 51.2842 67.2169 49.6182 67.2169V67.2169Z" fill="white"/>
<path d="M50.5136 39.894C50.2003 40.2974 50.2734 40.8785 50.6768 41.1918C51.0801 41.5051 51.6612 41.4321 51.9746 41.0285L53.8058 38.6703C54.2907 38.0459 54.5033 37.2701 54.4047 36.4856C54.3059 35.7011 53.9077 35.0021 53.2831 34.5171C52.6587 34.0322 51.8824 33.8183 51.0984 33.9184C50.3139 34.017 49.6149 34.4153 49.1301 35.0398L43.1562 42.7335L39.7277 38.94C38.6331 37.7295 36.7577 37.635 35.5472 38.729C34.9607 39.2592 34.6157 39.986 34.5758 40.7757C34.5359 41.5652 34.8059 42.323 35.3359 42.9097L41.1325 49.3228C42.2993 50.6762 44.6049 50.5932 45.6661 49.1533L49.3271 44.4385C49.6404 44.0351 49.5673 43.454 49.1639 43.1407C48.7604 42.8275 48.1794 42.9003 47.8661 43.304L44.2051 48.0188C43.8077 48.5588 42.9406 48.5902 42.505 48.0823L36.7086 41.6693C36.2982 41.2152 36.3337 40.512 36.7879 40.1015C37.2417 39.6916 37.9451 39.7266 38.3555 40.1808L42.524 44.7928C42.8873 45.2141 43.6095 45.1899 43.9408 44.7398L50.5915 36.1745C50.9475 35.6958 51.6858 35.6029 52.1489 35.9786C52.6278 36.3347 52.7205 37.0724 52.3449 37.5361L50.5136 39.894Z" fill="white"/>
</g>
<defs>
<clipPath id="clip0">
<rect width="63" height="63" fill="white" transform="translate(13 11)"/>
</clipPath>
</defs>
</svg>
