<svg width="34" height="34" viewBox="0 0 34 34" fill="none" xmlns="http://www.w3.org/2000/svg">
<g clip-path="url(#clip0)">
<path d="M24.8709 0.698242H9.40429C4.37053 0.698242 0.275391 4.64171 0.275391 9.48903V24.3831C0.275391 29.2302 4.37053 33.1736 9.40429 33.1736H24.8712C29.9047 33.1736 33.9998 29.2302 33.9998 24.3831V9.48903C33.9998 4.64171 29.9047 0.698242 24.8709 0.698242V0.698242ZM32.0228 24.3831C32.0228 28.1804 28.8145 31.2698 24.8709 31.2698H9.40429C5.4607 31.2698 2.25246 28.1804 2.25246 24.3831V9.48903C2.25246 5.6915 5.4607 2.60209 9.40429 2.60209H24.8712C28.8145 2.60209 32.0228 5.6915 32.0228 9.48903V24.3831Z" fill="#FF5C00"/>
<path d="M17.1377 8.05615C12.0529 8.05615 7.91638 12.0395 7.91638 16.9359C7.91638 21.8323 12.0529 25.8156 17.1377 25.8156C22.2224 25.8156 26.3589 21.8323 26.3589 16.9359C26.3589 12.0395 22.2224 8.05615 17.1377 8.05615ZM17.1377 23.9118C13.1434 23.9118 9.89345 20.7825 9.89345 16.9359C9.89345 13.0896 13.1434 9.96 17.1377 9.96C21.1322 9.96 24.3819 13.0896 24.3819 16.9359C24.3819 20.7825 21.1322 23.9118 17.1377 23.9118Z" fill="#FF5C00"/>
<path d="M26.5794 4.90234C25.0768 4.90234 23.8546 6.07949 23.8546 7.5262C23.8546 8.97316 25.0768 10.1503 26.5794 10.1503C28.082 10.1503 29.3044 8.97316 29.3044 7.5262C29.3044 6.07924 28.082 4.90234 26.5794 4.90234ZM26.5794 8.24621C26.1672 8.24621 25.8317 7.92313 25.8317 7.5262C25.8317 7.12903 26.1672 6.80619 26.5794 6.80619C26.9918 6.80619 27.3274 7.12903 27.3274 7.5262C27.3274 7.92313 26.9918 8.24621 26.5794 8.24621Z" fill="#FF5C00"/>
</g>
<defs>
<clipPath id="clip0">
<rect width="33.7245" height="32.4754" fill="white" transform="translate(0.275391 0.698242)"/>
</clipPath>
</defs>
</svg>
