<svg width="34" height="34" viewBox="0 0 34 34" fill="none" xmlns="http://www.w3.org/2000/svg">
<g clip-path="url(#clip0)">
<path d="M24.871 0.698242H9.40432C4.37056 0.698242 0.275421 4.64171 0.275421 9.48903V24.3831C0.275421 29.2302 4.37056 33.1736 9.40432 33.1736H24.8712C29.9047 33.1736 33.9999 29.2302 33.9999 24.3831V9.48903C33.9999 4.64171 29.9047 0.698242 24.871 0.698242V0.698242ZM32.0228 24.3831C32.0228 28.1804 28.8146 31.2698 24.871 31.2698H9.40432C5.46073 31.2698 2.25249 28.1804 2.25249 24.3831V9.48903C2.25249 5.6915 5.46073 2.60209 9.40432 2.60209H24.8712C28.8146 2.60209 32.0228 5.6915 32.0228 9.48903V24.3831Z" fill="#004F9F"/>
<path d="M17.1377 8.05615C12.0529 8.05615 7.91638 12.0395 7.91638 16.9359C7.91638 21.8323 12.0529 25.8156 17.1377 25.8156C22.2224 25.8156 26.3589 21.8323 26.3589 16.9359C26.3589 12.0395 22.2224 8.05615 17.1377 8.05615V8.05615ZM17.1377 23.9118C13.1434 23.9118 9.89345 20.7825 9.89345 16.9359C9.89345 13.0896 13.1434 9.96 17.1377 9.96C21.1322 9.96 24.3819 13.0896 24.3819 16.9359C24.3819 20.7825 21.1322 23.9118 17.1377 23.9118V23.9118Z" fill="#004F9F"/>
<path d="M26.5794 4.90234C25.0768 4.90234 23.8546 6.07949 23.8546 7.5262C23.8546 8.97316 25.0768 10.1503 26.5794 10.1503C28.082 10.1503 29.3045 8.97316 29.3045 7.5262C29.3045 6.07924 28.082 4.90234 26.5794 4.90234ZM26.5794 8.24621C26.1672 8.24621 25.8317 7.92312 25.8317 7.5262C25.8317 7.12903 26.1672 6.80619 26.5794 6.80619C26.9919 6.80619 27.3274 7.12903 27.3274 7.5262C27.3274 7.92312 26.9919 8.24621 26.5794 8.24621Z" fill="#004F9F"/>
</g>
<defs>
<clipPath id="clip0">
<rect width="33.7245" height="32.4754" fill="white" transform="translate(0.275421 0.698242)"/>
</clipPath>
</defs>
</svg>
