<svg width="91" height="91" viewBox="0 0 91 91" fill="none" xmlns="http://www.w3.org/2000/svg">
<g clip-path="url(#clip0)">
<path d="M89.6666 44.1671H68.2039V41.1342H73.9946C74.7308 41.1342 75.3276 40.5374 75.3276 39.8012C75.3276 39.065 74.7308 38.4682 73.9946 38.4682H68.2039V35.4352H72.2242C73.722 35.4352 75.1302 34.852 76.1891 33.7929L84.956 25.026C85.5272 25.3106 86.1605 25.462 86.8174 25.462C87.9346 25.462 88.9848 25.0269 89.7749 24.2371C90.5649 23.447 91 22.3968 91 21.2796C91 20.1624 90.5649 19.1121 89.7749 18.3221C88.985 17.5321 87.9346 17.097 86.8174 17.097C85.7001 17.097 84.6499 17.5321 83.8599 18.3219C83.0699 19.1119 82.6348 20.1622 82.6348 21.2794C82.6348 21.9363 82.7862 22.5696 83.0708 23.1408L74.3039 31.9077C73.7485 32.4631 73.0098 32.7692 72.224 32.7692H68.2037V29.828C68.2037 25.9506 65.0491 22.7962 61.1718 22.7962H58.2307V10.9956C59.885 10.4377 61.0801 8.87235 61.0801 7.0321C61.0801 4.72583 59.2038 2.84967 56.8977 2.84967C54.5916 2.84967 52.7153 4.726 52.7153 7.0321C52.7153 8.87235 53.9104 10.4375 55.5647 10.9956V22.796H52.5319V17.0053C52.5319 16.2691 51.935 15.6723 51.1988 15.6723C50.4627 15.6723 49.8658 16.2691 49.8658 17.0053V22.796H46.8328V1.33325C46.8328 0.597074 46.236 0.000244141 45.4998 0.000244141C44.7636 0.000244141 44.1668 0.597074 44.1668 1.33325V22.796H41.134V17.0053C41.134 16.2691 40.5371 15.6723 39.801 15.6723C39.0648 15.6723 38.468 16.2691 38.468 17.0053V22.796H35.4351V18.7759C35.4351 17.2781 34.8518 15.8699 33.7927 14.811L25.0228 6.04106C25.7975 4.47682 25.5378 2.52637 24.237 1.22536C22.6061 -0.405344 19.9527 -0.405166 18.322 1.22536C16.6913 2.85607 16.6913 5.50946 18.322 7.14034C19.1375 7.9556 20.2085 8.36332 21.2795 8.36332C21.9172 8.36332 22.5539 8.21527 23.1377 7.9261L31.9076 16.6962C32.4632 17.2516 32.7691 17.9903 32.7691 18.7759V22.796H29.828C29.2335 22.796 28.6421 22.8707 28.0705 23.0176C27.3577 23.2011 26.9284 23.9278 27.1118 24.6409C27.2953 25.354 28.0222 25.7832 28.7351 25.5996C29.0897 25.5084 29.4572 25.462 29.8278 25.462H61.1718C63.5792 25.462 65.5377 27.4206 65.5377 29.8279V61.1721C65.5377 61.5423 65.4915 61.9097 65.4005 62.2639C65.2172 62.977 65.6466 63.7035 66.3595 63.8868C66.4708 63.9154 66.5824 63.9291 66.6924 63.9291C67.2862 63.9291 67.8278 63.5294 67.9824 62.9276C68.1292 62.3567 68.2037 61.7659 68.2037 61.1719V58.2308H80.0041C80.5621 59.8851 82.1273 61.0802 83.9676 61.0802C86.2739 61.0802 88.15 59.204 88.15 56.8978C88.15 54.5915 86.2737 52.7153 83.9676 52.7153C82.1273 52.7153 80.5622 53.9104 80.0041 55.5648H68.2037V52.5317H73.9944C74.7306 52.5317 75.3274 51.9349 75.3274 51.1987C75.3274 50.4626 74.7306 49.8657 73.9944 49.8657H68.2037V46.8331H89.6666C90.4028 46.8331 90.9996 46.2362 90.9996 45.5001C90.9996 44.7639 90.4028 44.1671 89.6666 44.1671ZM85.7449 20.2073C86.0314 19.9208 86.4122 19.7632 86.8172 19.7632C87.2223 19.7632 87.603 19.9208 87.8895 20.2073C88.176 20.4938 88.3336 20.8745 88.3336 21.2796C88.3336 21.6846 88.176 22.0653 87.8895 22.3519C87.603 22.6384 87.2223 22.796 86.8172 22.796C86.4122 22.796 86.0314 22.6384 85.7449 22.3519C85.4584 22.0653 85.3008 21.6846 85.3008 21.2796C85.3008 20.8745 85.4584 20.4936 85.7449 20.2073ZM22.3516 5.2553C21.7605 5.84626 20.7984 5.84644 20.2069 5.25512C19.6156 4.6638 19.6156 3.70173 20.2069 3.11058C20.5026 2.81483 20.8908 2.66714 21.2793 2.66714C21.6677 2.66714 22.056 2.81501 22.3516 3.11058C22.9429 3.7019 22.9429 4.66398 22.3516 5.2553ZM56.8977 8.54852C56.0616 8.54852 55.3813 7.86816 55.3813 7.0321C55.3813 6.19604 56.0615 5.51568 56.8977 5.51568C57.7339 5.51568 58.4141 6.19604 58.4141 7.0321C58.4141 7.86816 57.7338 8.54852 56.8977 8.54852ZM83.9678 55.3815C84.804 55.3815 85.4842 56.0619 85.4842 56.8979C85.4842 57.7342 84.8038 58.4144 83.9678 58.4144C83.1317 58.4144 82.4514 57.734 82.4514 56.8979C82.4512 56.0617 83.1315 55.3815 83.9678 55.3815Z" fill="white"/>
<path d="M72.6778 83.86C71.377 82.559 69.4263 82.2994 67.8621 83.0741L59.0922 74.304C58.5366 73.7486 58.2307 73.0099 58.2307 72.2243V68.2042H61.1718C61.7664 68.2042 62.3575 68.1295 62.9289 67.9825C63.6418 67.7991 64.071 67.0724 63.8876 66.3593C63.7042 65.6464 62.9778 65.2172 62.2644 65.4006C61.91 65.4918 61.5424 65.538 61.1718 65.538H29.8278C27.4204 65.538 25.4619 63.5794 25.4619 61.1721V29.8281C25.4619 29.4575 25.5082 29.09 25.5993 28.7357C25.7829 28.0229 25.3537 27.2961 24.6408 27.1125C23.9278 26.9289 23.201 27.3581 23.0176 28.071C22.8704 28.6423 22.7959 29.2334 22.7959 29.8281V32.7692H10.9953C10.4374 31.1149 8.87211 29.9198 7.03186 29.9198C4.72558 29.9198 2.84943 31.796 2.84943 34.1022C2.84943 36.4085 4.72576 38.2847 7.03186 38.2847C8.87211 38.2847 10.4372 37.0896 10.9953 35.4352H22.7958V38.4683H17.005C16.2689 38.4683 15.672 39.0651 15.672 39.8013C15.672 40.5374 16.2689 41.1343 17.005 41.1343H22.7958V44.1671H1.333C0.59683 44.1671 0 44.764 0 45.5001C0 46.2363 0.59683 46.8331 1.333 46.8331H22.7958V49.866H17.005C16.2689 49.866 15.672 50.4628 15.672 51.199C15.672 51.9351 16.2689 52.532 17.005 52.532H22.7958V55.565H18.7754C17.2777 55.565 15.8695 56.1481 14.8105 57.2073L6.04366 65.9742C5.47242 65.6896 4.83915 65.5382 4.18225 65.5382C3.06502 65.5382 2.01479 65.9733 1.22476 66.7631C0.435092 67.5531 0 68.6035 0 69.7206C0 70.8377 0.435092 71.8881 1.22512 72.6781C2.01497 73.4681 3.06537 73.903 4.18261 73.903C5.29984 73.903 6.35007 73.4679 7.14009 72.6781C7.93012 71.8881 8.36521 70.8378 8.36521 69.7206C8.36521 69.0637 8.21378 68.4304 7.92923 67.8592L16.6961 59.0923C17.2515 58.5369 17.9902 58.2308 18.776 58.2308H22.7963V61.172C22.7963 65.0494 25.9509 68.2038 29.8282 68.2038H32.7693V80.0043C31.1149 80.5622 29.9199 82.1275 29.9199 83.9677C29.9199 86.274 31.7962 88.1502 34.1023 88.1502C36.4084 88.1502 38.2847 86.2738 38.2847 83.9677C38.2847 82.1275 37.0896 80.5624 35.4353 80.0043V68.2038H38.4681V73.9946C38.4681 74.7307 39.065 75.3276 39.8011 75.3276C40.5373 75.3276 41.1341 74.7307 41.1341 73.9946V68.2038H44.1668V89.667C44.1668 90.4031 44.7636 91 45.4998 91C46.236 91 46.8328 90.4031 46.8328 89.667V68.2042H49.8657V73.9949C49.8657 74.7311 50.4625 75.3279 51.1987 75.3279C51.9348 75.3279 52.5317 74.7311 52.5317 73.9949V68.2042H55.5645V72.2243C55.5645 73.7221 56.1478 75.1303 57.207 76.1892L65.9769 84.9591C65.2021 86.5234 65.4618 88.4738 66.7628 89.7748C67.5781 90.5903 68.6493 90.9978 69.7203 90.9978C70.7913 90.9978 71.8625 90.5903 72.6778 89.7748C74.3085 88.1441 74.3085 85.4907 72.6778 83.86ZM7.03186 35.6187C6.19562 35.6187 5.51543 34.9383 5.51543 34.1022C5.51543 33.266 6.1958 32.5858 7.03186 32.5858C7.86791 32.5858 8.54828 33.2662 8.54828 34.1022C8.54846 34.9385 7.86809 35.6187 7.03186 35.6187ZM5.2547 70.7929C4.96819 71.0794 4.58748 71.237 4.18243 71.237C3.77737 71.237 3.39667 71.0794 3.11016 70.7929C2.82365 70.5064 2.66601 70.1257 2.66601 69.7206C2.66601 69.3155 2.82365 68.9348 3.11016 68.6483C3.39667 68.3618 3.77737 68.2042 4.18243 68.2042C4.58748 68.2042 4.96819 68.3618 5.2547 68.6483C5.5412 68.9348 5.69885 69.3155 5.69885 69.7206C5.69885 70.1257 5.5412 70.5065 5.2547 70.7929ZM35.6184 83.9681C35.6184 84.8042 34.9382 85.4845 34.1019 85.4845C33.2657 85.4845 32.5855 84.8042 32.5855 83.9681C32.5855 83.132 33.2659 82.4517 34.1019 82.4517C34.938 82.4517 35.6184 83.132 35.6184 83.9681ZM70.7927 87.8898C70.2014 88.4811 69.2393 88.4809 68.648 87.8898C68.0567 87.2985 68.0567 86.3364 68.648 85.7453C68.9438 85.4497 69.3321 85.3018 69.7205 85.3018C70.1088 85.3018 70.4972 85.4497 70.7927 85.7453C71.3839 86.3364 71.3839 87.2985 70.7927 87.8898Z" fill="white"/>
<path d="M59.6554 41.9384C59.6554 39.0875 57.5703 36.6727 54.7157 35.888C54.8001 35.5394 54.847 35.1809 54.847 34.8146C54.847 32.1156 52.4514 29.9197 49.507 29.9197C47.912 29.9197 46.4793 30.5647 45.5 31.5842C44.5207 30.5647 43.0878 29.9197 41.493 29.9197C38.5485 29.9197 36.153 32.1156 36.153 34.8146C36.153 35.1809 36.1999 35.5394 36.2844 35.888C33.4298 36.6725 31.3446 39.0874 31.3446 41.9384C31.3446 43.3316 31.8376 44.6462 32.7485 45.7318C31.8579 46.8847 31.3446 48.2844 31.3446 49.7745C31.3442 52.0409 32.5553 54.1572 34.55 55.47C34.55 55.471 34.55 55.4721 34.55 55.4732C34.55 58.565 37.3051 61.0805 40.6916 61.0805C42.6378 61.0805 44.3741 60.2489 45.5 58.9553C46.626 60.2489 48.3622 61.0805 50.3084 61.0805C53.5675 61.0805 56.2405 58.7504 56.437 55.8192C58.4165 54.6707 59.6554 52.6589 59.6554 50.4867C59.6554 48.8888 58.9742 47.3646 57.8017 46.2125C58.974 45.0605 59.6554 43.536 59.6554 41.9384ZM54.9377 47.3913C56.2222 48.0691 56.9889 49.2264 56.9889 50.4867C56.9889 51.4263 56.5522 52.3227 55.8146 52.9929C55.1138 51.6952 53.8752 50.6623 52.3102 50.1707C51.6082 49.9501 50.8598 50.3406 50.639 51.0428C50.4183 51.7452 50.8089 52.4935 51.5112 52.714C52.8701 53.1411 53.7833 54.25 53.7833 55.4733C53.7833 57.0952 52.2242 58.4146 50.3077 58.4146C48.3914 58.4146 46.8323 57.0952 46.8323 55.4733V46.9249C46.8323 45.3031 48.3914 43.9837 50.3077 43.9837C51.0439 43.9837 51.6407 43.3869 51.6407 42.6507C51.6407 41.9146 51.0439 41.3177 50.3077 41.3177C49.0184 41.3177 47.8212 41.6832 46.8323 42.3054V40.6027C46.8323 39.8665 46.2355 39.2697 45.4993 39.2697C44.7631 39.2697 44.1663 39.8665 44.1663 40.6027V48.003C43.7177 47.7215 43.2257 47.4885 42.6936 47.3212C41.9909 47.1005 41.2429 47.4911 41.0224 48.1932C40.8016 48.8956 41.1921 49.6439 41.8943 49.8646C43.2533 50.2917 44.1663 51.4006 44.1663 52.6237V55.4732C44.1663 57.095 42.6072 58.4145 40.6909 58.4145C38.7744 58.4145 37.2153 57.095 37.2153 55.4732C37.2153 54.778 37.51 54.1023 38.045 53.5705C38.5672 53.0515 38.5697 52.2075 38.0507 51.6853C37.5317 51.1631 36.6878 51.1606 36.1656 51.6796C35.8462 51.9972 35.5713 52.3442 35.3427 52.713C34.501 51.9167 34.0095 50.8691 34.0095 49.7741C34.0095 47.7992 35.5596 46.0641 37.7789 45.5549C38.4964 45.3903 38.9447 44.6751 38.7801 43.9576C38.6155 43.2399 37.9001 42.7919 37.1828 42.9564C36.2893 43.1614 35.4668 43.5035 34.7374 43.9526C34.2644 43.3587 34.0097 42.663 34.0097 41.938C34.0103 39.933 35.9109 38.3007 38.254 38.2852C38.2659 38.2856 38.2778 38.2872 38.2895 38.2872C38.5938 38.2872 38.8997 38.1836 39.1501 37.9715C39.6611 37.5389 39.7637 36.8049 39.4206 36.2527C39.4105 36.2363 39.4013 36.2196 39.3906 36.2038C39.3851 36.1958 39.3785 36.1882 39.3728 36.1802C39.3522 36.1512 39.3311 36.1228 39.3081 36.0954C39.3074 36.0945 39.3069 36.0936 39.3062 36.0929C39.0838 35.83 38.8185 35.3949 38.8185 34.8145C38.8185 33.5854 40.0182 32.5855 41.4925 32.5855C42.9668 32.5855 44.1665 33.5854 44.1665 34.8145C44.1665 35.5506 44.7633 36.1475 45.4995 36.1475C46.2357 36.1475 46.8325 35.5506 46.8325 34.8145C46.8325 33.5854 48.0322 32.5855 49.5065 32.5855C50.9808 32.5855 52.1805 33.5854 52.1805 34.8145C52.1805 35.1429 52.0945 35.423 51.9806 35.6534C51.2223 35.725 50.489 35.9082 49.7928 36.2019C49.1144 36.4878 48.7965 37.2697 49.0824 37.9481C49.3684 38.6263 50.1502 38.9446 50.8287 38.6585C51.4049 38.4155 52.0248 38.2906 52.6714 38.2856C52.6842 38.286 52.6968 38.2872 52.7096 38.2872C52.7215 38.2872 52.7333 38.2856 52.7452 38.2852C55.0882 38.3005 56.9889 39.933 56.9889 41.938C56.9889 43.1983 56.2222 44.3554 54.9377 45.0334C54.5005 45.2641 54.2267 45.7179 54.2267 46.2123C54.2267 46.7068 54.5005 47.1606 54.9377 47.3913Z" fill="white"/>
</g>
<defs>
<clipPath id="clip0">
<rect width="91" height="91" fill="white"/>
</clipPath>
</defs>
</svg>
