<svg width="36" height="36" viewBox="0 0 36 36" fill="none" xmlns="http://www.w3.org/2000/svg">
<g clip-path="url(#clip0)">
<path d="M35.0516 35.6757V35.6743H35.0604V22.8477C35.0604 16.5729 33.7095 11.7393 26.3738 11.7393C22.8473 11.7393 20.4807 13.6745 19.5146 15.5091H19.4126V12.3251H12.4572V35.6743H19.6997V24.1126C19.6997 21.0685 20.2767 18.1248 24.0466 18.1248C27.7611 18.1248 27.8165 21.5989 27.8165 24.3079V35.6757H35.0516Z" fill="#FFFFFF"/>
<path d="M0.663849 12.3267H7.91504V35.6759H0.663849V12.3267Z" fill="#FFFFFF"/>
<path d="M4.28653 0.702148C1.96808 0.702148 0.086792 2.58343 0.086792 4.90189C0.086792 7.22035 1.96808 9.14098 4.28653 9.14098C6.60499 9.14098 8.48628 7.22035 8.48628 4.90189C8.48482 2.58343 6.60353 0.702148 4.28653 0.702148V0.702148Z" fill="#FFFFFF"/>
</g>
<defs>
<clipPath id="clip0">
<rect width="34.9736" height="34.9736" fill="white" transform="translate(0.086792 0.702148)"/>
</clipPath>
</defs>
</svg>
