<?xml version="1.0" encoding="utf-8"?>
<!-- Generator: Adobe Illustrator 25.0.1, SVG Export Plug-In . SVG Version: 6.00 Build 0)  -->
<svg version="1.1" id="Capa_1" xmlns="http://www.w3.org/2000/svg" xmlns:xlink="http://www.w3.org/1999/xlink" x="0px" y="0px"
	 viewBox="0 0 375.6 100" style="enable-background:new 0 0 375.6 100;" xml:space="preserve">
<style type="text/css">
	.st0{fill:#FFFFFF;}
	.st1{fill:#AFCA0B;}
	.st2{fill:#AECA15;}
	.st3{fill:#ACC91C;}
	.st4{fill:#ABC921;}
	.st5{fill:#A9C826;}
	.st6{fill:#A8C72A;}
	.st7{fill:#A6C72E;}
	.st8{fill:#A4C631;}
	.st9{fill:#A3C635;}
	.st10{fill:#A1C538;}
	.st11{fill:#A0C53B;}
	.st12{fill:#9EC43E;}
	.st13{fill:#9CC341;}
	.st14{fill:#9BC343;}
	.st15{fill:#99C246;}
	.st16{fill:#97C249;}
	.st17{fill:#96C14C;}
	.st18{fill:#94C14E;}
	.st19{fill:#92C051;}
	.st20{fill:#90BF53;}
	.st21{fill:#8EBF56;}
	.st22{fill:#8DBE58;}
	.st23{fill:#8BBE5B;}
	.st24{fill:#89BD5D;}
	.st25{fill:#87BD60;}
	.st26{fill:#85BC62;}
	.st27{fill:#83BC64;}
	.st28{fill:#81BB67;}
	.st29{fill:#7EBB69;}
	.st30{fill:#7CBA6B;}
	.st31{fill:#7ABA6D;}
	.st32{fill:#78B970;}
	.st33{fill:#76B872;}
	.st34{fill:#74B874;}
	.st35{fill:#71B776;}
	.st36{fill:#6FB778;}
	.st37{fill:#6DB67A;}
	.st38{fill:#6AB67C;}
	.st39{fill:#68B57E;}
	.st40{fill:#66B580;}
	.st41{fill:#63B482;}
	.st42{fill:#61B484;}
	.st43{fill:#5EB386;}
	.st44{fill:#5BB388;}
	.st45{fill:#59B28A;}
	.st46{fill:#56B28C;}
	.st47{fill:#53B18E;}
	.st48{fill:#50B18F;}
	.st49{fill:#4DB091;}
	.st50{fill:#4AB093;}
	.st51{fill:#46AF95;}
	.st52{fill:#43AF96;}
	.st53{fill:#3FAE98;}
	.st54{fill:#3BAE9A;}
	.st55{fill:#37AD9B;}
	.st56{fill:#32AC9D;}
	.st57{fill:#2DAC9F;}
	.st58{fill:#28ABA0;}
	.st59{fill:#22ABA2;}
	.st60{fill:#1AAAA3;}
	.st61{fill:#10AAA5;}
	.st62{fill:#00A9A7;}
	.st63{fill:#00A9A8;}
	.st64{fill:#00A8AA;}
	.st65{fill:#00A8AB;}
	.st66{fill:#00A7AD;}
	.st67{fill:#00A7AE;}
	.st68{fill:#00A6B0;}
	.st69{fill:#00A6B1;}
	.st70{fill:#00A5B3;}
	.st71{fill:#00A5B4;}
	.st72{fill:#00A4B5;}
	.st73{fill:#00A4B7;}
	.st74{fill:#00A3B8;}
	.st75{fill:#00A3BA;}
	.st76{fill:#00A2BB;}
	.st77{fill:#00A2BD;}
	.st78{fill:#00A1BE;}
	.st79{fill:#00A1BF;}
	.st80{fill:#00A0C1;}
	.st81{fill:#00A0C2;}
	.st82{fill:#009FC3;}
	.st83{fill:#009FC5;}
	.st84{fill:#009EC6;}
	.st85{fill:#009EC7;}
	.st86{fill:#009DC8;}
	.st87{fill:#009DCA;}
	.st88{fill:#009CCB;}
	.st89{fill:#009CCC;}
	.st90{fill:#009BCD;}
	.st91{fill:#009BCE;}
	.st92{fill:#009AD0;}
	.st93{fill:#009AD1;}
	.st94{fill:#0099D2;}
	.st95{fill:#0099D3;}
	.st96{fill:#0098D4;}
	.st97{fill:#0098D6;}
	.st98{fill:#0097D7;}
	.st99{fill:#0097D8;}
	.st100{fill:#0096D9;}
	.st101{fill:#0096DA;}
	.st102{fill:#0095DB;}
	.st103{fill:#0095D9;}
	.st104{fill:#0095D8;}
	.st105{fill:#0095D6;}
	.st106{fill:#0095D4;}
	.st107{fill:#0095D3;}
	.st108{fill:#0095D1;}
	.st109{fill:#0095CF;}
	.st110{fill:#0095CD;}
	.st111{fill:#0094CC;}
	.st112{fill:#0094CA;}
	.st113{fill:#0094C8;}
	.st114{fill:#0094C6;}
	.st115{fill:#0094C4;}
	.st116{fill:#0093C3;}
	.st117{fill:#0093C1;}
	.st118{fill:#0093BF;}
	.st119{fill:#0093BD;}
	.st120{fill:#0093BB;}
	.st121{fill:#0092BA;}
	.st122{fill:#0092B8;}
	.st123{fill:#1292B6;}
	.st124{fill:#2191B4;}
	.st125{fill:#2B91B2;}
	.st126{fill:#3391B0;}
	.st127{fill:#3A90AE;}
	.st128{fill:#4090AC;}
	.st129{fill:#4690AA;}
	.st130{fill:#4B8FA8;}
	.st131{fill:#508FA6;}
	.st132{fill:#548FA5;}
	.st133{fill:#598EA3;}
	.st134{fill:#5D8EA1;}
	.st135{fill:#618D9F;}
	.st136{fill:#658D9D;}
	.st137{fill:#688C9B;}
	.st138{fill:#6C8B99;}
	.st139{fill:#6F8B97;}
	.st140{fill:#728A95;}
	.st141{fill:#768992;}
	.st142{fill:#798990;}
	.st143{fill:#7C888E;}
	.st144{fill:#7F878C;}
	.st145{fill:#81878A;}
	.st146{fill:#848688;}
	.st147{fill:#878586;}
	.st148{fill:#8A8584;}
	.st149{fill:#8C8482;}
	.st150{fill:#8F8380;}
	.st151{fill:#91827E;}
	.st152{fill:#94817C;}
	.st153{fill:#96807A;}
	.st154{fill:#987F78;}
	.st155{fill:#9A7E76;}
	.st156{fill:#9C7D74;}
	.st157{fill:#9E7C72;}
	.st158{fill:#A07B70;}
	.st159{fill:#A37A6E;}
	.st160{fill:#A5796B;}
	.st161{fill:#A77869;}
	.st162{fill:#A87767;}
	.st163{fill:#AA7665;}
	.st164{fill:#AC7563;}
	.st165{fill:#AE7461;}
	.st166{fill:#B0735F;}
	.st167{fill:#B2725D;}
	.st168{fill:#B4705B;}
	.st169{fill:#B66F58;}
	.st170{fill:#B76E56;}
	.st171{fill:#B96D54;}
	.st172{fill:#BB6B52;}
	.st173{fill:#BC6A50;}
	.st174{fill:#BE694E;}
	.st175{fill:#C0674C;}
	.st176{fill:#C1664A;}
	.st177{fill:#C36448;}
	.st178{fill:#C46346;}
	.st179{fill:#C66144;}
	.st180{fill:#C76041;}
	.st181{fill:#C95E3F;}
	.st182{fill:#CA5D3D;}
	.st183{fill:#CC5B3B;}
	.st184{fill:#CD5939;}
	.st185{fill:#CE5837;}
	.st186{fill:#D05635;}
	.st187{fill:#D15433;}
	.st188{fill:#D35231;}
	.st189{fill:#D4512F;}
	.st190{fill:#D54F2D;}
	.st191{fill:#D64D2B;}
	.st192{fill:#D84B29;}
	.st193{fill:#D94927;}
	.st194{fill:#DA4725;}
	.st195{fill:#DC4523;}
	.st196{fill:#DD4321;}
	.st197{fill:#DE401F;}
	.st198{fill:#DF3E1D;}
	.st199{fill:#E13C1B;}
	.st200{fill:#E23A19;}
	.st201{fill:#E33817;}
	.st202{fill:#E43515;}
	.st203{fill:#E63312;}
	.st204{fill:#E63512;}
	.st205{fill:#E63712;}
	.st206{fill:#E63812;}
	.st207{fill:#E63A11;}
	.st208{fill:#E63C11;}
	.st209{fill:#E73E11;}
	.st210{fill:#E74011;}
	.st211{fill:#E74210;}
	.st212{fill:#E74410;}
	.st213{fill:#E84610;}
	.st214{fill:#E84810;}
	.st215{fill:#E8490F;}
	.st216{fill:#E84B0F;}
	.st217{fill:#E84D0F;}
	.st218{fill:#E94F0E;}
	.st219{fill:#E9510E;}
	.st220{fill:#E9520E;}
	.st221{fill:#E9540D;}
	.st222{fill:#EA560D;}
	.st223{fill:#EA580C;}
	.st224{fill:#EA5A0C;}
	.st225{fill:#EA5B0B;}
	.st226{fill:#EB5D0B;}
	.st227{fill:#EB5F0A;}
	.st228{fill:#EB600A;}
	.st229{fill:#EB6209;}
	.st230{fill:#EC6309;}
	.st231{fill:#EC6508;}
	.st232{fill:#EC6707;}
	.st233{fill:#EC6807;}
	.st234{fill:#ED6A06;}
	.st235{fill:#ED6B06;}
	.st236{fill:#ED6D05;}
	.st237{fill:#ED6F04;}
	.st238{fill:#ED7003;}
	.st239{fill:#EE7203;}
	.st240{fill:#EE7302;}
	.st241{fill:#EE7501;}
	.st242{fill:#EE7701;}
	.st243{fill:#EF7800;}
	.st244{fill:#EF7A00;}
	.st245{fill:#EF7B00;}
	.st246{fill:#EF7D00;}
	.st247{fill:#F07E00;}
	.st248{fill:#F08000;}
	.st249{fill:#F08100;}
	.st250{fill:#F08200;}
	.st251{fill:#F18400;}
	.st252{fill:#F18500;}
	.st253{fill:#F18700;}
	.st254{fill:#F18800;}
	.st255{fill:#F18A00;}
	.st256{fill:#F28B00;}
	.st257{fill:#F28D00;}
	.st258{fill:#F28E00;}
	.st259{fill:#F39000;}
	.st260{fill:#F39100;}
	.st261{fill:#F39200;}
	.st262{fill:#F39400;}
	.st263{fill:#F49500;}
	.st264{fill:#F49700;}
	.st265{fill:#F49800;}
	.st266{fill:#F59A00;}
	.st267{fill:#F59B00;}
	.st268{fill:#F59C00;}
	.st269{fill:#F59E00;}
	.st270{fill:#F69F00;}
	.st271{fill:#F6A000;}
	.st272{fill:#F6A200;}
	.st273{fill:#F6A300;}
	.st274{fill:#F7A500;}
	.st275{fill:#F7A600;}
	.st276{fill:#F7A800;}
	.st277{fill:#F8A900;}
	.st278{fill:#F8AA00;}
	.st279{fill:#F8AC00;}
	.st280{fill:#F9AD00;}
	.st281{fill:#F9AE00;}
	.st282{fill:#F9B000;}
	.st283{fill:#F9B100;}
	.st284{fill:#FAB200;}
	.st285{fill:#FAB400;}
	.st286{fill:#FAB500;}
	.st287{fill:#FAB600;}
	.st288{fill:#FBB800;}
	.st289{fill:#FBB900;}
	.st290{fill:#FBBA00;}
	.st291{fill:#FCBC00;}
	.st292{fill:#FCBD00;}
	.st293{fill:#FCBE00;}
	.st294{fill:#FCBF00;}
	.st295{fill:#FDC100;}
	.st296{fill:#FDC200;}
	.st297{fill:#FDC300;}
	.st298{fill:#FDC500;}
	.st299{fill:#FEC600;}
	.st300{fill:#FEC700;}
	.st301{fill:#FEC800;}
	.st302{fill:#FFCA00;}
	.st303{fill:#FFCB00;}
</style>
<g>
	<g>
		<g>
			<path class="st0" d="M186.8,11.3h29v9.9h-18.9v11.2h18.9v9.7h-18.9v12.4h18.9v9.9h-29V11.3z"/>
			<path class="st0" d="M225.2,11.3h9.7l22.7,34.9V11.3h10.1v53.1H258l-22.7-34.8v34.8h-10.1V11.3z"/>
			<path class="st0" d="M279.1,11.3h10v53.1h-10V11.3z"/>
			<path class="st0" d="M295.3,11.3h29.1v10H315v43.1h-10.2V21.3h-9.4V11.3z"/>
			<path class="st0" d="M331.5,11.3h10.3v23.4l17.7-5.4V11.3h10.2v53.1h-10.2V39.2l-17.7,5.4v19.9h-10.3V11.3z"/>
			<g>
				<path class="st0" d="M164.6,50.5c5.1,0,10,1,14.5,2.8v11.2c-4.2-2.5-9.2-4-14.5-4c-6.8,0-13,2.4-17.8,6.3
					c-0.3,0.2-0.6,0.5-0.9,0.8l-8.9-3.7l23.3-42.6H137v-9.9h40.6l-21.9,40.3C158.4,51.1,161.7,50.5,164.6,50.5z"/>
			</g>
		</g>
		<g>
			<path class="st0" d="M138,85.4c0,0,1.5,1.6,3.7,1.6c1.4,0,2.5-0.8,2.5-2.1c0-3.2-7-2.5-7-6.9c0-2.3,2-4.1,4.7-4.1
				c2.7,0,4.1,1.5,4.1,1.5l-0.9,1.7c0,0-1.3-1.3-3.2-1.3c-1.5,0-2.6,1-2.6,2.1c0,3,7,2.2,7,6.9c0,2.2-1.7,4.1-4.6,4.1
				c-3.1,0-4.8-1.9-4.8-1.9L138,85.4z"/>
			<path class="st0" d="M155.3,73.9c4.2,0,7.5,3.2,7.5,7.4c0,4.3-3.3,7.6-7.5,7.6c-4.2,0-7.5-3.3-7.5-7.6
				C147.8,77.1,151.1,73.9,155.3,73.9z M155.3,87c3,0,5.4-2.5,5.4-5.7c0-3.2-2.4-5.6-5.4-5.6c-3,0-5.4,2.4-5.4,5.6
				C149.9,84.6,152.3,87,155.3,87z"/>
			<path class="st0" d="M165.3,74.1h8v1.8h-6v4.8h5.1v1.8h-5.1v6.2h-2V74.1z"/>
			<path class="st0" d="M178.7,75.9h-5v-1.8h12v1.8h-5v12.8h-2V75.9z"/>
			<path class="st0" d="M196.1,74.1l2.8,10.7c0.2,0.8,0.3,1.5,0.3,1.5h0c0,0,0.1-0.8,0.3-1.5l2.7-10.7h2.1l-3.8,14.5h-2.4l-2.5-9.4
				c-0.2-0.9-0.4-2.1-0.4-2.1h0c0,0-0.2,1.1-0.4,2.1l-2.5,9.4h-2.4l-3.7-14.5h2.1l2.6,10.7c0.2,0.8,0.3,1.5,0.3,1.5h0
				c0,0,0.1-0.7,0.3-1.5l2.8-10.7H196.1z"/>
			<path class="st0" d="M213.3,84.5h-5.5l-1.4,4.2h-2.1l5.2-14.5h2.1l5.2,14.5h-2.1L213.3,84.5z M210.6,76.1c0,0-0.3,1.3-0.6,2.1
				l-1.6,4.6h4.4l-1.6-4.6C210.9,77.4,210.6,76.1,210.6,76.1L210.6,76.1z"/>
			<path class="st0" d="M218.6,74.1h4.4c1.5,0,2.2,0.1,2.7,0.3c1.5,0.6,2.5,2,2.5,3.9c0,1.9-1,3.4-2.6,3.9v0c0,0,0.2,0.2,0.4,0.7
				l3.1,5.6h-2.3l-3.1-5.8h-3.1v5.8h-2V74.1z M223.6,81.1c1.6,0,2.6-1,2.6-2.6c0-1.1-0.4-1.8-1.2-2.2c-0.4-0.2-0.9-0.3-2-0.3h-2.3
				v5.2H223.6z"/>
			<path class="st0" d="M231.4,74.1h8.4v1.8h-6.4v4.6h5.2v1.8h-5.2v4.7h6.8v1.8h-8.8V74.1z"/>
			<path class="st0" d="M254.9,84.5h-5.5l-1.4,4.2h-2.1l5.2-14.5h2.1l5.2,14.5h-2.1L254.9,84.5z M252.2,76.1c0,0-0.3,1.3-0.6,2.1
				l-1.6,4.6h4.4l-1.6-4.6C252.5,77.4,252.2,76.1,252.2,76.1L252.2,76.1z"/>
			<path class="st0" d="M260.3,85.4c0,0,1.5,1.6,3.7,1.6c1.4,0,2.5-0.8,2.5-2.1c0-3.2-7-2.5-7-6.9c0-2.3,2-4.1,4.7-4.1
				c2.7,0,4.1,1.5,4.1,1.5l-0.9,1.7c0,0-1.3-1.3-3.2-1.3c-1.5,0-2.6,1-2.6,2.1c0,3,7,2.2,7,6.9c0,2.2-1.7,4.1-4.6,4.1
				c-3.1,0-4.8-1.9-4.8-1.9L260.3,85.4z"/>
			<path class="st0" d="M283.1,84.5h-5.5l-1.4,4.2h-2.1l5.2-14.5h2.1l5.2,14.5h-2.1L283.1,84.5z M280.4,76.1c0,0-0.3,1.3-0.6,2.1
				l-1.6,4.6h4.4l-1.6-4.6C280.8,77.4,280.4,76.1,280.4,76.1L280.4,76.1z"/>
			<path class="st0" d="M293.4,85.4c0,0,1.5,1.6,3.7,1.6c1.4,0,2.5-0.8,2.5-2.1c0-3.2-7-2.5-7-6.9c0-2.3,2-4.1,4.7-4.1
				c2.7,0,4.1,1.5,4.1,1.5l-0.9,1.7c0,0-1.3-1.3-3.2-1.3c-1.5,0-2.6,1-2.6,2.1c0,3,7,2.2,7,6.9c0,2.2-1.7,4.1-4.6,4.1
				c-3.1,0-4.8-1.9-4.8-1.9L293.4,85.4z"/>
			<path class="st0" d="M304.2,74.1h8.4v1.8h-6.4v4.6h5.2v1.8h-5.2v4.7h6.8v1.8h-8.8V74.1z"/>
			<path class="st0" d="M315.6,74.1h4.4c1.5,0,2.2,0.1,2.7,0.3c1.5,0.6,2.5,2,2.5,3.9c0,1.9-1,3.4-2.6,3.9v0c0,0,0.2,0.2,0.4,0.7
				l3.1,5.6h-2.3l-3.1-5.8h-3.1v5.8h-2V74.1z M320.5,81.1c1.6,0,2.6-1,2.6-2.6c0-1.1-0.4-1.8-1.2-2.2c-0.4-0.2-0.9-0.3-2-0.3h-2.3
				v5.2H320.5z"/>
			<path class="st0" d="M326.5,74.1h2.2l3.6,10.3c0.3,0.8,0.6,2,0.6,2h0c0,0,0.3-1.2,0.6-2l3.6-10.3h2.2l-5.4,14.5h-2L326.5,74.1z"
				/>
			<path class="st0" d="M341,74.1h2v14.5h-2V74.1z"/>
			<path class="st0" d="M353,73.9c3.5,0,5.3,1.9,5.3,1.9l-1,1.5c0,0-1.7-1.6-4.2-1.6c-3.3,0-5.4,2.5-5.4,5.6c0,3.1,2.2,5.7,5.4,5.7
				c2.7,0,4.5-1.9,4.5-1.9l1.1,1.5c0,0-2,2.3-5.6,2.3c-4.4,0-7.4-3.3-7.4-7.6C345.6,77.1,348.7,73.9,353,73.9z"/>
			<path class="st0" d="M361,74.1h8.4v1.8h-6.4v4.6h5.2v1.8h-5.2v4.7h6.8v1.8H361V74.1z"/>
		</g>
	</g>
</g>
<g>
	<circle class="st1" cx="105.5" cy="71.6" r="19.2"/>
	<circle class="st2" cx="104.9" cy="71.8" r="19"/>
	<circle class="st3" cx="104.3" cy="71.9" r="18.9"/>
	<circle class="st4" cx="103.6" cy="72" r="18.8"/>
	<circle class="st5" cx="103" cy="72.1" r="18.7"/>
	<circle class="st6" cx="102.4" cy="72.3" r="18.5"/>
	<circle class="st7" cx="101.7" cy="72.4" r="18.4"/>
	<circle class="st8" cx="101.1" cy="72.5" r="18.3"/>
	<circle class="st9" cx="100.5" cy="72.7" r="18.1"/>
	<circle class="st10" cx="99.9" cy="72.8" r="18"/>
	<circle class="st11" cx="99.2" cy="72.9" r="17.9"/>
	<circle class="st12" cx="98.6" cy="73" r="17.8"/>
	<circle class="st13" cx="98" cy="73.2" r="17.6"/>
	<circle class="st14" cx="97.3" cy="73.3" r="17.5"/>
	<circle class="st15" cx="96.7" cy="73.4" r="17.4"/>
	<circle class="st16" cx="96.1" cy="73.5" r="17.3"/>
	<circle class="st17" cx="95.4" cy="73.7" r="17.1"/>
	<circle class="st18" cx="94.8" cy="73.8" r="17"/>
	<circle class="st19" cx="94.2" cy="73.9" r="16.9"/>
	<circle class="st20" cx="93.6" cy="74.1" r="16.7"/>
	<circle class="st21" cx="92.9" cy="74.2" r="16.6"/>
	<circle class="st22" cx="92.3" cy="74.3" r="16.5"/>
	<circle class="st23" cx="91.7" cy="74.4" r="16.4"/>
	<circle class="st24" cx="91" cy="74.6" r="16.2"/>
	<circle class="st25" cx="90.4" cy="74.7" r="16.1"/>
	<circle class="st26" cx="89.8" cy="74.8" r="16"/>
	<circle class="st27" cx="89.1" cy="75" r="15.8"/>
	<circle class="st28" cx="88.5" cy="75.1" r="15.7"/>
	<circle class="st29" cx="87.9" cy="75.2" r="15.6"/>
	<circle class="st30" cx="87.2" cy="75.3" r="15.5"/>
	<circle class="st31" cx="86.6" cy="75.5" r="15.3"/>
	<circle class="st32" cx="86" cy="75.6" r="15.2"/>
	<circle class="st33" cx="85.4" cy="75.7" r="15.1"/>
	<circle class="st34" cx="84.7" cy="75.9" r="14.9"/>
	<circle class="st35" cx="84.1" cy="76" r="14.8"/>
	<circle class="st36" cx="83.5" cy="76.1" r="14.7"/>
	<circle class="st37" cx="82.8" cy="76.2" r="14.6"/>
	<circle class="st38" cx="82.2" cy="76.4" r="14.4"/>
	<circle class="st39" cx="81.6" cy="76.5" r="14.3"/>
	<circle class="st40" cx="80.9" cy="76.6" r="14.2"/>
	<circle class="st41" cx="80.3" cy="76.8" r="14"/>
	<circle class="st42" cx="79.7" cy="76.9" r="13.9"/>
	<circle class="st43" cx="79.1" cy="77" r="13.8"/>
	<circle class="st44" cx="78.4" cy="77.1" r="13.7"/>
	<circle class="st45" cx="77.8" cy="77.3" r="13.5"/>
	<circle class="st46" cx="77.2" cy="77.4" r="13.4"/>
	<circle class="st47" cx="76.5" cy="77.5" r="13.3"/>
	<circle class="st48" cx="75.9" cy="77.6" r="13.2"/>
	<circle class="st49" cx="75.3" cy="77.8" r="13"/>
	<circle class="st50" cx="74.6" cy="77.9" r="12.9"/>
	<circle class="st51" cx="74" cy="78" r="12.8"/>
	<circle class="st52" cx="73.4" cy="78.2" r="12.6"/>
	<circle class="st53" cx="72.7" cy="78.3" r="12.5"/>
	<circle class="st54" cx="72.1" cy="78.4" r="12.4"/>
	<circle class="st55" cx="71.5" cy="78.5" r="12.3"/>
	<circle class="st56" cx="70.9" cy="78.7" r="12.1"/>
	<circle class="st57" cx="70.2" cy="78.8" r="12"/>
	<circle class="st58" cx="69.6" cy="78.9" r="11.9"/>
	<circle class="st59" cx="69" cy="79.1" r="11.7"/>
	<circle class="st60" cx="68.3" cy="79.2" r="11.6"/>
	<circle class="st61" cx="67.7" cy="79.3" r="11.5"/>
	<circle class="st62" cx="67.1" cy="79.4" r="11.4"/>
	<circle class="st63" cx="66.4" cy="79.6" r="11.2"/>
	<circle class="st64" cx="65.8" cy="79.7" r="11.1"/>
	<circle class="st65" cx="65.2" cy="79.8" r="11"/>
	<circle class="st66" cx="64.5" cy="80" r="10.8"/>
	<circle class="st67" cx="63.9" cy="80.1" r="10.7"/>
	<circle class="st68" cx="63.3" cy="80.2" r="10.6"/>
	<circle class="st69" cx="62.7" cy="80.3" r="10.5"/>
	<circle class="st70" cx="62" cy="80.5" r="10.3"/>
	<circle class="st71" cx="61.4" cy="80.6" r="10.2"/>
	<circle class="st72" cx="60.8" cy="80.7" r="10.1"/>
	<circle class="st73" cx="60.1" cy="80.9" r="9.9"/>
	<circle class="st74" cx="59.5" cy="81" r="9.8"/>
	<circle class="st75" cx="58.9" cy="81.1" r="9.7"/>
	<circle class="st76" cx="58.2" cy="81.2" r="9.6"/>
	<circle class="st77" cx="57.6" cy="81.4" r="9.4"/>
	<circle class="st78" cx="57" cy="81.5" r="9.3"/>
	<circle class="st79" cx="56.4" cy="81.6" r="9.2"/>
	<circle class="st80" cx="55.7" cy="81.7" r="9.1"/>
	<circle class="st81" cx="55.1" cy="81.9" r="8.9"/>
	<circle class="st82" cx="54.5" cy="82" r="8.8"/>
	<circle class="st83" cx="53.8" cy="82.1" r="8.7"/>
	<circle class="st84" cx="53.2" cy="82.3" r="8.5"/>
	<circle class="st85" cx="52.6" cy="82.4" r="8.4"/>
	<circle class="st86" cx="51.9" cy="82.5" r="8.3"/>
	<circle class="st87" cx="51.3" cy="82.6" r="8.2"/>
	<circle class="st88" cx="50.7" cy="82.8" r="8"/>
	<circle class="st89" cx="50" cy="82.9" r="7.9"/>
	<circle class="st90" cx="49.4" cy="83" r="7.8"/>
	<circle class="st91" cx="48.8" cy="83.2" r="7.6"/>
	<circle class="st92" cx="48.2" cy="83.3" r="7.5"/>
	<circle class="st93" cx="47.5" cy="83.4" r="7.4"/>
	<circle class="st94" cx="46.9" cy="83.5" r="7.3"/>
	<circle class="st95" cx="46.3" cy="83.7" r="7.1"/>
	<circle class="st96" cx="45.6" cy="83.8" r="7"/>
	<circle class="st97" cx="45" cy="83.9" r="6.9"/>
	<circle class="st98" cx="44.4" cy="84.1" r="6.7"/>
	<circle class="st99" cx="43.7" cy="84.2" r="6.6"/>
	<circle class="st100" cx="43.1" cy="84.3" r="6.5"/>
	<circle class="st101" cx="42.5" cy="84.4" r="6.4"/>
	<circle class="st102" cx="41.9" cy="84.6" r="6.2"/>
	<circle class="st103" cx="42" cy="84" r="6.2"/>
	<circle class="st104" cx="42.2" cy="83.5" r="6.2"/>
	<circle class="st105" cx="42.4" cy="83" r="6.2"/>
	<circle class="st106" cx="42.6" cy="82.5" r="6.2"/>
	<circle class="st107" cx="42.8" cy="82" r="6.2"/>
	<circle class="st108" cx="42.9" cy="81.4" r="6.2"/>
	<circle class="st109" cx="43.1" cy="80.9" r="6.2"/>
	<circle class="st110" cx="43.3" cy="80.4" r="6.2"/>
	<circle class="st111" cx="43.5" cy="79.9" r="6.2"/>
	<circle class="st112" cx="43.7" cy="79.4" r="6.2"/>
	<circle class="st113" cx="43.8" cy="78.9" r="6.2"/>
	<circle class="st114" cx="44" cy="78.3" r="6.2"/>
	<circle class="st115" cx="44.2" cy="77.8" r="6.2"/>
	<circle class="st116" cx="44.4" cy="77.3" r="6.2"/>
	<circle class="st117" cx="44.6" cy="76.8" r="6.2"/>
	<circle class="st118" cx="44.7" cy="76.3" r="6.2"/>
	<circle class="st119" cx="44.9" cy="75.7" r="6.2"/>
	<circle class="st120" cx="45.1" cy="75.2" r="6.2"/>
	<circle class="st121" cx="45.3" cy="74.7" r="6.2"/>
	<circle class="st122" cx="45.5" cy="74.2" r="6.2"/>
	<circle class="st123" cx="45.6" cy="73.7" r="6.2"/>
	<circle class="st124" cx="45.8" cy="73.1" r="6.2"/>
	<circle class="st125" cx="46" cy="72.6" r="6.2"/>
	<circle class="st126" cx="46.2" cy="72.1" r="6.2"/>
	<circle class="st127" cx="46.4" cy="71.6" r="6.2"/>
	<circle class="st128" cx="46.5" cy="71.1" r="6.2"/>
	<circle class="st129" cx="46.7" cy="70.5" r="6.2"/>
	<circle class="st130" cx="46.9" cy="70" r="6.2"/>
	<circle class="st131" cx="47.1" cy="69.5" r="6.2"/>
	<circle class="st132" cx="47.3" cy="69" r="6.2"/>
	<circle class="st133" cx="47.4" cy="68.5" r="6.2"/>
	<circle class="st134" cx="47.6" cy="67.9" r="6.2"/>
	<circle class="st135" cx="47.8" cy="67.4" r="6.2"/>
	<circle class="st136" cx="48" cy="66.9" r="6.2"/>
	<circle class="st137" cx="48.2" cy="66.4" r="6.2"/>
	<circle class="st138" cx="48.3" cy="65.9" r="6.2"/>
	<circle class="st139" cx="48.5" cy="65.3" r="6.2"/>
	<circle class="st140" cx="48.7" cy="64.8" r="6.2"/>
	<circle class="st141" cx="48.9" cy="64.3" r="6.2"/>
	<circle class="st142" cx="49.1" cy="63.8" r="6.2"/>
	<circle class="st143" cx="49.2" cy="63.3" r="6.2"/>
	<circle class="st144" cx="49.4" cy="62.7" r="6.2"/>
	<circle class="st145" cx="49.6" cy="62.2" r="6.2"/>
	<circle class="st146" cx="49.8" cy="61.7" r="6.2"/>
	<circle class="st147" cx="50" cy="61.2" r="6.2"/>
	<circle class="st148" cx="50.1" cy="60.7" r="6.2"/>
	<circle class="st149" cx="50.3" cy="60.1" r="6.2"/>
	<circle class="st150" cx="50.5" cy="59.6" r="6.2"/>
	<circle class="st151" cx="50.7" cy="59.1" r="6.2"/>
	<circle class="st152" cx="50.9" cy="58.6" r="6.2"/>
	<circle class="st153" cx="51" cy="58.1" r="6.2"/>
	<circle class="st154" cx="51.2" cy="57.5" r="6.2"/>
	<circle class="st155" cx="51.4" cy="57" r="6.2"/>
	<circle class="st156" cx="51.6" cy="56.5" r="6.2"/>
	<circle class="st157" cx="51.8" cy="56" r="6.2"/>
	<circle class="st158" cx="52" cy="55.5" r="6.2"/>
	<circle class="st159" cx="52.1" cy="55" r="6.2"/>
	<circle class="st160" cx="52.3" cy="54.4" r="6.2"/>
	<circle class="st161" cx="52.5" cy="53.9" r="6.2"/>
	<circle class="st162" cx="52.7" cy="53.4" r="6.2"/>
	<circle class="st163" cx="52.9" cy="52.9" r="6.2"/>
	<circle class="st164" cx="53" cy="52.4" r="6.2"/>
	<circle class="st165" cx="53.2" cy="51.8" r="6.2"/>
	<circle class="st166" cx="53.4" cy="51.3" r="6.2"/>
	<circle class="st167" cx="53.6" cy="50.8" r="6.2"/>
	<circle class="st168" cx="53.8" cy="50.3" r="6.2"/>
	<circle class="st169" cx="53.9" cy="49.8" r="6.2"/>
	<circle class="st170" cx="54.1" cy="49.2" r="6.2"/>
	<circle class="st171" cx="54.3" cy="48.7" r="6.2"/>
	<circle class="st172" cx="54.5" cy="48.2" r="6.2"/>
	<circle class="st173" cx="54.7" cy="47.7" r="6.2"/>
	<circle class="st174" cx="54.8" cy="47.2" r="6.2"/>
	<circle class="st175" cx="55" cy="46.6" r="6.2"/>
	<circle class="st176" cx="55.2" cy="46.1" r="6.2"/>
	<circle class="st177" cx="55.4" cy="45.6" r="6.2"/>
	<circle class="st178" cx="55.6" cy="45.1" r="6.2"/>
	<circle class="st179" cx="55.7" cy="44.6" r="6.2"/>
	<circle class="st180" cx="55.9" cy="44" r="6.2"/>
	<circle class="st181" cx="56.1" cy="43.5" r="6.2"/>
	<circle class="st182" cx="56.3" cy="43" r="6.2"/>
	<circle class="st183" cx="56.5" cy="42.5" r="6.2"/>
	<circle class="st184" cx="56.6" cy="42" r="6.2"/>
	<circle class="st185" cx="56.8" cy="41.4" r="6.2"/>
	<circle class="st186" cx="57" cy="40.9" r="6.2"/>
	<circle class="st187" cx="57.2" cy="40.4" r="6.2"/>
	<circle class="st188" cx="57.4" cy="39.9" r="6.2"/>
	<circle class="st189" cx="57.5" cy="39.4" r="6.2"/>
	<circle class="st190" cx="57.7" cy="38.8" r="6.2"/>
	<circle class="st191" cx="57.9" cy="38.3" r="6.2"/>
	<circle class="st192" cx="58.1" cy="37.8" r="6.2"/>
	<circle class="st193" cx="58.3" cy="37.3" r="6.2"/>
	<circle class="st194" cx="58.4" cy="36.8" r="6.2"/>
	<circle class="st195" cx="58.6" cy="36.2" r="6.2"/>
	<circle class="st196" cx="58.8" cy="35.7" r="6.2"/>
	<circle class="st197" cx="59" cy="35.2" r="6.2"/>
	<circle class="st198" cx="59.2" cy="34.7" r="6.2"/>
	<circle class="st199" cx="59.3" cy="34.2" r="6.2"/>
	<circle class="st200" cx="59.5" cy="33.6" r="6.2"/>
	<circle class="st201" cx="59.7" cy="33.1" r="6.2"/>
	<circle class="st202" cx="59.9" cy="32.6" r="6.2"/>
	<circle class="st203" cx="60.1" cy="32.1" r="6.2"/>
	<circle class="st204" cx="59.7" cy="32" r="6.4"/>
	<circle class="st205" cx="59.2" cy="32" r="6.5"/>
	<circle class="st206" cx="58.8" cy="31.9" r="6.6"/>
	<circle class="st207" cx="58.4" cy="31.9" r="6.7"/>
	<circle class="st208" cx="58" cy="31.8" r="6.9"/>
	<circle class="st209" cx="57.6" cy="31.8" r="7"/>
	<circle class="st210" cx="57.2" cy="31.7" r="7.1"/>
	<circle class="st211" cx="56.8" cy="31.7" r="7.3"/>
	<circle class="st212" cx="56.4" cy="31.7" r="7.4"/>
	<circle class="st213" cx="56" cy="31.6" r="7.5"/>
	<circle class="st214" cx="55.6" cy="31.6" r="7.6"/>
	<circle class="st215" cx="55.1" cy="31.5" r="7.8"/>
	<circle class="st216" cx="54.7" cy="31.5" r="7.9"/>
	<circle class="st217" cx="54.3" cy="31.4" r="8"/>
	<circle class="st218" cx="53.9" cy="31.4" r="8.2"/>
	<circle class="st219" cx="53.5" cy="31.3" r="8.3"/>
	<circle class="st220" cx="53.1" cy="31.3" r="8.4"/>
	<circle class="st221" cx="52.7" cy="31.2" r="8.5"/>
	<circle class="st222" cx="52.3" cy="31.2" r="8.7"/>
	<circle class="st223" cx="51.9" cy="31.1" r="8.8"/>
	<circle class="st224" cx="51.5" cy="31.1" r="8.9"/>
	<circle class="st225" cx="51" cy="31" r="9.1"/>
	<circle class="st226" cx="50.6" cy="31" r="9.2"/>
	<circle class="st227" cx="50.2" cy="30.9" r="9.3"/>
	<circle class="st228" cx="49.8" cy="30.9" r="9.4"/>
	<circle class="st229" cx="49.4" cy="30.8" r="9.6"/>
	<circle class="st230" cx="49" cy="30.8" r="9.7"/>
	<circle class="st231" cx="48.6" cy="30.7" r="9.8"/>
	<circle class="st232" cx="48.2" cy="30.7" r="9.9"/>
	<circle class="st233" cx="47.8" cy="30.6" r="10.1"/>
	<circle class="st234" cx="47.4" cy="30.6" r="10.2"/>
	<circle class="st235" cx="46.9" cy="30.5" r="10.3"/>
	<circle class="st236" cx="46.5" cy="30.5" r="10.5"/>
	<circle class="st237" cx="46.1" cy="30.4" r="10.6"/>
	<circle class="st238" cx="45.7" cy="30.4" r="10.7"/>
	<circle class="st239" cx="45.3" cy="30.3" r="10.8"/>
	<circle class="st240" cx="44.9" cy="30.3" r="11"/>
	<circle class="st241" cx="44.5" cy="30.2" r="11.1"/>
	<circle class="st242" cx="44.1" cy="30.2" r="11.2"/>
	<circle class="st243" cx="43.7" cy="30.2" r="11.4"/>
	<circle class="st244" cx="43.2" cy="30.1" r="11.5"/>
	<circle class="st245" cx="42.8" cy="30.1" r="11.6"/>
	<circle class="st246" cx="42.4" cy="30" r="11.7"/>
	<circle class="st247" cx="42" cy="30" r="11.9"/>
	<circle class="st248" cx="41.6" cy="29.9" r="12"/>
	<circle class="st249" cx="41.2" cy="29.9" r="12.1"/>
	<circle class="st250" cx="40.8" cy="29.8" r="12.3"/>
	<circle class="st251" cx="40.4" cy="29.8" r="12.4"/>
	<circle class="st252" cx="40" cy="29.7" r="12.5"/>
	<circle class="st253" cx="39.6" cy="29.7" r="12.6"/>
	<circle class="st254" cx="39.1" cy="29.6" r="12.8"/>
	<circle class="st255" cx="38.7" cy="29.6" r="12.9"/>
	<circle class="st256" cx="38.3" cy="29.5" r="13"/>
	<circle class="st257" cx="37.9" cy="29.5" r="13.2"/>
	<circle class="st258" cx="37.5" cy="29.4" r="13.3"/>
	<circle class="st259" cx="37.1" cy="29.4" r="13.4"/>
	<circle class="st260" cx="36.7" cy="29.3" r="13.5"/>
	<circle class="st261" cx="36.3" cy="29.3" r="13.7"/>
	<circle class="st262" cx="35.9" cy="29.2" r="13.8"/>
	<circle class="st263" cx="35.5" cy="29.2" r="13.9"/>
	<circle class="st264" cx="35" cy="29.1" r="14"/>
	<circle class="st265" cx="34.6" cy="29.1" r="14.2"/>
	<circle class="st266" cx="34.2" cy="29" r="14.3"/>
	<circle class="st267" cx="33.8" cy="29" r="14.4"/>
	<circle class="st268" cx="33.4" cy="28.9" r="14.6"/>
	<circle class="st269" cx="33" cy="28.9" r="14.7"/>
	<circle class="st270" cx="32.6" cy="28.8" r="14.8"/>
	<circle class="st271" cx="32.2" cy="28.8" r="14.9"/>
	<circle class="st272" cx="31.8" cy="28.7" r="15.1"/>
	<circle class="st273" cx="31.4" cy="28.7" r="15.2"/>
	<circle class="st274" cx="30.9" cy="28.6" r="15.3"/>
	<circle class="st275" cx="30.5" cy="28.6" r="15.5"/>
	<circle class="st276" cx="30.1" cy="28.6" r="15.6"/>
	<circle class="st277" cx="29.7" cy="28.5" r="15.7"/>
	<circle class="st278" cx="29.3" cy="28.5" r="15.8"/>
	<circle class="st279" cx="28.9" cy="28.4" r="16"/>
	<circle class="st280" cx="28.5" cy="28.4" r="16.1"/>
	<circle class="st281" cx="28.1" cy="28.3" r="16.2"/>
	<circle class="st282" cx="27.7" cy="28.3" r="16.4"/>
	<circle class="st283" cx="27.2" cy="28.2" r="16.5"/>
	<circle class="st284" cx="26.8" cy="28.2" r="16.6"/>
	<circle class="st285" cx="26.4" cy="28.1" r="16.7"/>
	<circle class="st286" cx="26" cy="28.1" r="16.9"/>
	<circle class="st287" cx="25.6" cy="28" r="17"/>
	<circle class="st288" cx="25.2" cy="28" r="17.1"/>
	<circle class="st289" cx="24.8" cy="27.9" r="17.3"/>
	<circle class="st290" cx="24.4" cy="27.9" r="17.4"/>
	<circle class="st291" cx="24" cy="27.8" r="17.5"/>
	<circle class="st292" cx="23.6" cy="27.8" r="17.6"/>
	<circle class="st293" cx="23.1" cy="27.7" r="17.8"/>
	<circle class="st294" cx="22.7" cy="27.7" r="17.9"/>
	<circle class="st295" cx="22.3" cy="27.6" r="18"/>
	<circle class="st296" cx="21.9" cy="27.6" r="18.1"/>
	<circle class="st297" cx="21.5" cy="27.5" r="18.3"/>
	<circle class="st298" cx="21.1" cy="27.5" r="18.4"/>
	<circle class="st299" cx="20.7" cy="27.4" r="18.5"/>
	<circle class="st300" cx="20.3" cy="27.4" r="18.7"/>
	<circle class="st301" cx="19.9" cy="27.3" r="18.8"/>
	<circle class="st302" cx="19.5" cy="27.3" r="18.9"/>
	<circle class="st303" cx="19" cy="27.2" r="19"/>
</g>
</svg>
