<svg width="90" height="90" viewBox="0 0 90 90" fill="none" xmlns="http://www.w3.org/2000/svg">
<circle cx="45" cy="45" r="45" fill="#f8aa00"/>
<g clip-path="url(#clip0)">
<path d="M63.0087 29.3436C62.1669 20.7438 55.3623 13.9392 46.7625 13.0975C36.8164 12.124 27.9644 19.3976 26.9909 29.3436C20.8017 29.7577 15.9947 34.9015 16 41.1045C16.0057 47.6088 21.2829 52.877 27.7872 52.8713H28.6931V51.0595H27.7872C22.2836 51.047 17.8322 46.5753 17.8447 41.0717C17.8571 35.5681 22.3289 31.1167 27.8325 31.1291C28.315 31.1298 28.7133 30.7522 28.7384 30.2703C29.1694 21.939 35.8273 15.2811 44.1586 14.8501C53.1395 14.3856 60.7965 21.2894 61.2611 30.2703C61.3085 30.7595 61.7209 31.1319 62.2123 31.1291C67.7159 31.1291 72.1775 35.5907 72.1775 41.0943C72.1775 46.5979 67.7159 51.0595 62.2123 51.0595H61.3064V52.8713H62.2123C68.4154 52.8766 73.5592 48.0697 73.9733 41.8804C74.4074 35.3906 69.4985 29.7777 63.0087 29.3436Z" fill="white"/>
<path d="M45.9057 63.8567V50.1536H44.0939V63.8566C42.5309 64.2588 41.3761 65.6776 41.3761 67.3661C41.3761 69.3674 42.9985 70.9898 44.9998 70.9898C47.0011 70.9898 48.6235 69.3674 48.6235 67.3661C48.6235 65.6777 47.4687 64.2589 45.9057 63.8567ZM44.9998 69.178C43.9991 69.178 43.1879 68.3668 43.1879 67.3661C43.1879 66.3654 43.9991 65.5543 44.9998 65.5543C46.0005 65.5543 46.8116 66.3654 46.8116 67.3661C46.8116 68.3668 46.0004 69.178 44.9998 69.178Z" fill="white"/>
<path d="M32.3168 38.3765C30.3155 38.3765 28.6931 39.9989 28.6931 42.0002C28.6931 43.6887 29.8479 45.1075 31.4109 45.5097V50.1535H33.2227V45.5097C34.7857 45.1075 35.9405 43.6887 35.9405 42.0002C35.9405 39.9989 34.3181 38.3765 32.3168 38.3765ZM32.3168 43.812C31.3161 43.812 30.505 43.0009 30.505 42.0002C30.505 40.9995 31.3161 40.1883 32.3168 40.1883C33.3175 40.1883 34.1287 40.9995 34.1287 42.0002C34.1287 43.0009 33.3174 43.812 32.3168 43.812Z" fill="white"/>
<path d="M70.3656 59.2129C68.6771 59.2129 67.2583 60.3677 66.8561 61.9306H59.4945C59.4406 61.9359 59.3865 61.9359 59.3326 61.9306C58.877 61.8859 58.5439 61.4803 58.5886 61.0247V54.6832H56.7768V61.0247C56.7753 61.0762 56.7753 61.1276 56.7768 61.1792C56.8195 62.6375 58.0362 63.7852 59.4945 63.7425H66.8561C67.2583 65.3054 68.6771 66.4603 70.3656 66.4603C72.3669 66.4603 73.9893 64.8379 73.9893 62.8366C73.9893 60.8352 72.3669 59.2129 70.3656 59.2129ZM70.3656 64.6484C69.3649 64.6484 68.5538 63.8373 68.5538 62.8366C68.5538 61.8358 69.3649 61.0247 70.3656 61.0247C71.3663 61.0247 72.1775 61.8358 72.1775 62.8366C72.1775 63.8373 71.3662 64.6484 70.3656 64.6484Z" fill="white"/>
<path d="M33.2228 61.0246V51.9653H31.4109V61.0137C31.4168 61.0689 31.4171 61.1245 31.4119 61.1796C31.3688 61.6374 30.9628 61.9735 30.505 61.9305H23.1434C22.7412 60.3676 21.3224 59.2127 19.6339 59.2127C17.6326 59.2127 16.0102 60.8351 16.0102 62.8364C16.0102 64.8377 17.6326 66.4601 19.6339 66.4601C21.3224 66.4601 22.7412 65.3053 23.1434 63.7424H30.505C30.5565 63.7438 30.6079 63.7438 30.6594 63.7424C32.1178 63.6997 33.2654 62.4829 33.2228 61.0246ZM19.6339 64.6483C18.6332 64.6483 17.822 63.8371 17.822 62.8364C17.822 61.8357 18.6332 61.0246 19.6339 61.0246C20.6346 61.0246 21.4457 61.8357 21.4457 62.8364C21.4457 63.8371 20.6345 64.6483 19.6339 64.6483Z" fill="white"/>
<path d="M57.6827 38.3765C55.6814 38.3765 54.059 39.9989 54.059 42.0002C54.059 43.6887 55.2138 45.1075 56.7768 45.5097V52.8713H58.5886V45.5097C60.1516 45.1075 61.3064 43.6887 61.3064 42.0002C61.3064 39.9989 59.684 38.3765 57.6827 38.3765ZM57.6827 43.812C56.682 43.812 55.8708 43.0009 55.8708 42.0002C55.8708 40.9995 56.682 40.1883 57.6827 40.1883C58.6834 40.1883 59.4945 40.9995 59.4945 42.0002C59.4945 43.0009 58.6834 43.812 57.6827 43.812Z" fill="white"/>
<path d="M39.2988 44.9834C38.945 44.6297 38.3716 44.6297 38.0178 44.9834L35.3 47.7012L36.581 48.9821L37.7524 47.8108V58.3068H39.5642V47.8108L40.7356 48.9821L42.0166 47.7012L39.2988 44.9834Z" fill="white"/>
<path d="M53.4185 57.6664L52.2472 58.8377V48.3417H50.4353V58.8377L49.264 57.6664L47.983 58.9473L50.7008 61.6651C50.8706 61.835 51.1009 61.9305 51.3412 61.9305C51.5815 61.9305 51.8119 61.835 51.9817 61.6651L54.6995 58.9473L53.4185 57.6664Z" fill="white"/>
<path d="M44.9998 32.941C42.9985 32.941 41.3761 34.5634 41.3761 36.5647C41.3761 38.2533 42.5309 39.6721 44.0939 40.0743V48.3418H45.9057V40.0743C47.4687 39.6721 48.6235 38.2533 48.6235 36.5647C48.6235 34.5634 47.0011 32.941 44.9998 32.941ZM44.9998 38.3766C43.9991 38.3766 43.1879 37.5654 43.1879 36.5647C43.1879 35.564 43.9991 34.7529 44.9998 34.7529C46.0005 34.7529 46.8116 35.564 46.8116 36.5647C46.8116 37.5654 46.0005 38.3766 44.9998 38.3766Z" fill="white"/>
</g>
<defs>
<clipPath id="clip0">
<rect width="58" height="58" fill="white" transform="translate(16 13)"/>
</clipPath>
</defs>
</svg>
