<svg width="85" height="85" viewBox="0 0 85 85" fill="none" xmlns="http://www.w3.org/2000/svg">
<path d="M81.0156 73.0469H79.6875V38.8477C79.6855 37.1981 78.3487 35.8614 76.6992 35.8594H75.7031V38.5156H76.6992C76.8827 38.5156 77.0312 38.6642 77.0312 38.8477V73.0469H55.7812C55.5751 73.0469 55.3717 73.0949 55.1872 73.1872L52.8114 74.375H32.1886L29.8128 73.1872C29.6283 73.0949 29.4249 73.0469 29.2188 73.0469H7.96875V38.8477C7.96875 38.6642 8.11733 38.5156 8.30078 38.5156H9.29688V35.8594H8.30078C6.65125 35.8614 5.31449 37.1981 5.3125 38.8477V73.0469H3.98438C3.25092 73.0469 2.65625 73.6415 2.65625 74.375V77.6953C2.65924 80.2614 4.73858 82.3408 7.30469 82.3438H77.6953C80.2614 82.3408 82.3408 80.2614 82.3438 77.6953V74.375C82.3438 73.6415 81.7491 73.0469 81.0156 73.0469ZM79.6875 77.6953C79.6863 78.795 78.795 79.6863 77.6953 79.6875H7.30469C6.205 79.6863 5.31366 78.795 5.3125 77.6953V75.7031H28.9051L31.281 76.891C31.4654 76.9833 31.6688 77.0312 31.875 77.0312H53.125C53.3312 77.0312 53.5346 76.9833 53.719 76.891L56.0949 75.7031H79.6875V77.6953Z" fill="white"/>
<path d="M11.9531 33.2031V69.0625C11.9531 69.796 12.5478 70.3906 13.2812 70.3906H71.7188C72.4522 70.3906 73.0469 69.796 73.0469 69.0625V53.125H70.3906V67.7344H14.6094V34.5312H27.8906V31.875H13.2812C12.5478 31.875 11.9531 32.4697 11.9531 33.2031Z" fill="white"/>
<path d="M73.0469 50.4033V33.2031C73.0469 32.4697 72.4522 31.875 71.7188 31.875H54.4531V34.5313H70.3906V50.4033H73.0469Z" fill="white"/>
<path d="M31.875 38.5156H38.8477C40.8905 38.5153 42.8066 37.5253 43.9888 35.8594H47.8125V43.2763C47.8105 43.9755 47.4439 44.6232 46.8453 44.9846L43.525 46.9768C42.8943 47.3561 42.1057 47.3561 41.475 46.9768L38.1547 44.9846C37.5561 44.6232 37.1895 43.9755 37.1875 43.2763V41.1719H34.5312V43.2763C34.5359 44.9079 35.3914 46.4188 36.7881 47.2623L38.1682 48.0904L37.358 52.1412L29.5787 55.0584C27.7684 55.7437 26.5688 57.4748 26.5625 59.4104V62.4219H19.9219V65.0781H65.0781V62.4219H58.4375V59.4104C58.4314 57.4746 57.2317 55.7434 55.4213 55.0579L47.642 52.1407L46.8318 48.0899L48.2119 47.2618C49.6085 46.4185 50.4639 44.9077 50.4688 43.2763V35.8594C51.2022 35.8594 51.7969 35.2647 51.7969 34.5312V31.543C51.7929 28.0605 48.9708 25.2384 45.4883 25.2344H36.8555C33.373 25.2384 30.5509 28.0605 30.5469 31.543V37.1875C30.5469 37.921 31.1415 38.5156 31.875 38.5156ZM42.5 49.9184C43.1574 49.9184 43.8072 49.7785 44.4065 49.5082L45.0075 52.5131L42.5 54.185L39.9932 52.5132L40.5941 49.5083C41.1931 49.7785 41.8429 49.9182 42.5 49.9184ZM55.7812 59.4104V62.4219H29.2188V59.4104C29.2214 58.5808 29.7357 57.8388 30.5115 57.545L38.345 54.6065L41.7632 56.8854C42.2093 57.1829 42.7907 57.1829 43.2368 56.8854L46.655 54.6065L54.4885 57.545C55.2643 57.8387 55.7786 58.5808 55.7812 59.4104ZM49.1406 31.543V33.2031H45.1562V27.8906H45.4883C47.5045 27.8929 49.1383 29.5267 49.1406 31.543ZM33.2031 31.543C33.2054 29.5267 34.8392 27.8929 36.8555 27.8906H42.5V32.207C42.4977 34.2233 40.8639 35.8571 38.8477 35.8594H33.2031V31.543Z" fill="white"/>
<path d="M55.7812 37.1875C55.0478 37.1875 54.4531 37.7822 54.4531 38.5156V49.1406C54.4531 49.8741 55.0478 50.4688 55.7812 50.4688H66.4062C67.1397 50.4688 67.7344 49.8741 67.7344 49.1406V38.5156C67.7344 37.7822 67.1397 37.1875 66.4062 37.1875H55.7812ZM65.0781 47.8125H57.1094V39.8438H65.0781V47.8125Z" fill="white"/>
<path d="M29.408 47.1677L31.6857 45.8011L27.7014 39.1604C27.4613 38.7603 27.029 38.5156 26.5625 38.5156H17.2656V41.1719H25.8106L29.408 47.1677Z" fill="white"/>
<path d="M17.2656 43.8281H25.2344V46.4844H17.2656V43.8281Z" fill="white"/>
<path d="M31.875 22.5781H53.125C53.8585 22.5781 54.4531 21.9835 54.4531 21.25V3.98438C54.4531 3.25092 53.8585 2.65625 53.125 2.65625H31.875C31.1415 2.65625 30.5469 3.25092 30.5469 3.98438V21.25C30.5469 21.9835 31.1415 22.5781 31.875 22.5781ZM41.1719 11.9531V10.625C41.1719 9.89154 41.7665 9.29688 42.5 9.29688C43.2335 9.29688 43.8281 9.89154 43.8281 10.625V11.9531C43.8281 12.6866 43.2335 13.2812 42.5 13.2812C41.7665 13.2812 41.1719 12.6866 41.1719 11.9531ZM40.5078 15.9375H44.4922C45.5919 15.9387 46.4832 16.83 46.4844 17.9297V19.9219H38.5156V17.9297C38.5168 16.83 39.4081 15.9387 40.5078 15.9375ZM33.2031 5.3125H51.7969V19.9219H49.1406V17.9297C49.1385 15.9971 47.9427 14.2669 46.1357 13.5816C46.366 13.0696 46.4849 12.5146 46.4844 11.9531V10.625C46.4844 8.42446 44.7005 6.64062 42.5 6.64062C40.2995 6.64062 38.5156 8.42446 38.5156 10.625V11.9531C38.5151 12.5146 38.634 13.0696 38.8643 13.5816C37.0573 14.2669 35.8615 15.9971 35.8594 17.9297V19.9219H33.2031V5.3125Z" fill="white"/>
<path d="M81.0156 7.96875H59.7656C59.0322 7.96875 58.4375 8.56342 58.4375 9.29688V26.5625C58.4375 27.296 59.0322 27.8906 59.7656 27.8906H81.0156C81.7491 27.8906 82.3438 27.296 82.3438 26.5625V9.29688C82.3438 8.56342 81.7491 7.96875 81.0156 7.96875ZM69.0625 17.2656V15.9375C69.0625 15.204 69.6572 14.6094 70.3906 14.6094C71.1241 14.6094 71.7188 15.204 71.7188 15.9375V17.2656C71.7188 17.9991 71.1241 18.5938 70.3906 18.5938C69.6572 18.5938 69.0625 17.9991 69.0625 17.2656ZM68.3984 21.25H72.3828C73.4825 21.2512 74.3738 22.1425 74.375 23.2422V25.2344H66.4062V23.2422C66.4074 22.1425 67.2987 21.2512 68.3984 21.25ZM79.6875 25.2344H77.0312V23.2422C77.0291 21.3096 75.8333 19.5794 74.0264 18.8941C74.2566 18.3821 74.3755 17.8271 74.375 17.2656V15.9375C74.375 13.737 72.5912 11.9531 70.3906 11.9531C68.1901 11.9531 66.4062 13.737 66.4062 15.9375V17.2656C66.4058 17.8271 66.5246 18.3821 66.7549 18.8941C64.948 19.5794 63.7522 21.3096 63.75 23.2422V25.2344H61.0938V10.625H79.6875V25.2344Z" fill="white"/>
<path d="M3.98438 27.8906H25.2344C25.9678 27.8906 26.5625 27.296 26.5625 26.5625V9.29688C26.5625 8.56342 25.9678 7.96875 25.2344 7.96875H3.98438C3.25092 7.96875 2.65625 8.56342 2.65625 9.29688V13.2812H5.3125V10.625H23.9062V25.2344H21.25V23.2422C21.2478 21.3096 20.052 19.5794 18.2451 18.8941C18.4754 18.3821 18.5942 17.8271 18.5938 17.2656V15.9375C18.5938 13.737 16.8099 11.9531 14.6094 11.9531C12.4088 11.9531 10.625 13.737 10.625 15.9375V17.2656C10.6245 17.8271 10.7434 18.3821 10.9736 18.8941C9.16672 19.5794 7.97091 21.3096 7.96875 23.2422V25.2344H5.3125V15.8034H2.65625V26.5625C2.65625 27.296 3.25092 27.8906 3.98438 27.8906ZM13.2812 15.9375C13.2812 15.204 13.8759 14.6094 14.6094 14.6094C15.3428 14.6094 15.9375 15.204 15.9375 15.9375V17.2656C15.9375 17.9991 15.3428 18.5938 14.6094 18.5938C13.8759 18.5938 13.2812 17.9991 13.2812 17.2656V15.9375ZM10.625 23.2422C10.6262 22.1425 11.5175 21.2512 12.6172 21.25H16.6016C17.7013 21.2512 18.5926 22.1425 18.5938 23.2422V25.2344H10.625V23.2422Z" fill="white"/>
</svg>
