<svg width="45" height="45" viewBox="0 0 45 45" fill="none" xmlns="http://www.w3.org/2000/svg">
<path d="M43.2422 20.7422H1.75781C0.786973 20.7422 0 21.5292 0 22.5C0 23.4708 0.786973 24.2578 1.75781 24.2578H43.2422C44.213 24.2578 45 23.4708 45 22.5C45 21.5292 44.213 20.7422 43.2422 20.7422Z" fill="white"/>
<path d="M43.2422 6.67969H1.75781C0.786973 6.67969 0 7.46666 0 8.4375C0 9.40834 0.786973 10.1953 1.75781 10.1953H43.2422C44.213 10.1953 45 9.40834 45 8.4375C45 7.46666 44.213 6.67969 43.2422 6.67969Z" fill="white"/>
<path d="M43.2422 34.8047H1.75781C0.786973 34.8047 0 35.5917 0 36.5625C0 37.5333 0.786973 38.3203 1.75781 38.3203H43.2422C44.213 38.3203 45 37.5333 45 36.5625C45 35.5917 44.213 34.8047 43.2422 34.8047Z" fill="white"/>
</svg>
