<svg width="88" height="88" viewBox="0 0 88 88" fill="none" xmlns="http://www.w3.org/2000/svg">
<path d="M62.9062 0H25.0938C21.5397 0 18.6484 2.89128 18.6484 6.44531V81.5547C18.6484 85.1087 21.5397 88 25.0938 88H62.9062C66.4603 88 69.3516 85.1087 69.3516 81.5547V6.44531C69.3516 2.89128 66.4603 0 62.9062 0ZM66.7734 69.9531H30.25C29.5381 69.9531 28.9609 70.5303 28.9609 71.2422C28.9609 71.9541 29.5381 72.5312 30.25 72.5312H66.7734V81.5547C66.7734 83.6871 65.0387 85.4219 62.9062 85.4219H25.0938C22.9613 85.4219 21.2266 83.6871 21.2266 81.5547V72.5312H25.0938C25.8057 72.5312 26.3828 71.9541 26.3828 71.2422C26.3828 70.5303 25.8057 69.9531 25.0938 69.9531H21.2266V12.8906H66.7734V69.9531ZM66.7734 10.3125H21.2266V6.44531C21.2266 4.31286 22.9613 2.57812 25.0938 2.57812H62.9062C65.0387 2.57812 66.7734 4.31286 66.7734 6.44531V10.3125Z" fill="white"/>
<path d="M49.1562 5.15625H44C43.2881 5.15625 42.7109 5.73341 42.7109 6.44531C42.7109 7.15722 43.2881 7.73438 44 7.73438H49.1562C49.8682 7.73438 50.4453 7.15722 50.4453 6.44531C50.4453 5.73341 49.8682 5.15625 49.1562 5.15625Z" fill="white"/>
<path d="M44 75.1094C41.8675 75.1094 40.1328 76.8441 40.1328 78.9766C40.1328 81.109 41.8675 82.8438 44 82.8438C46.1325 82.8438 47.8672 81.109 47.8672 78.9766C47.8672 76.8441 46.1325 75.1094 44 75.1094ZM44 80.2656C43.2891 80.2656 42.7109 79.6874 42.7109 78.9766C42.7109 78.2657 43.2891 77.6875 44 77.6875C44.7109 77.6875 45.2891 78.2657 45.2891 78.9766C45.2891 79.6874 44.7109 80.2656 44 80.2656Z" fill="white"/>
<path d="M38.8438 7.73438C39.5557 7.73438 40.1328 7.15724 40.1328 6.44531C40.1328 5.73338 39.5557 5.15625 38.8438 5.15625C38.1318 5.15625 37.5547 5.73338 37.5547 6.44531C37.5547 7.15724 38.1318 7.73438 38.8438 7.73438Z" fill="white"/>
</svg>
