<svg width="79" height="79" viewBox="0 0 79 79" fill="none" xmlns="http://www.w3.org/2000/svg">
<path d="M72.4167 2.63333H71.1V1.31667C71.1 0.589492 70.5105 0 69.7833 0C69.0562 0 68.4667 0.589492 68.4667 1.31667V2.63333H64.5167V1.31667C64.5167 0.589492 63.9272 0 63.2 0C62.4728 0 61.8833 0.589492 61.8833 1.31667V2.63333H57.9333V1.31667C57.9333 0.589492 57.3438 0 56.6167 0C55.8895 0 55.3 0.589492 55.3 1.31667V2.63333H51.35V1.31667C51.35 0.589492 50.7605 0 50.0333 0C49.3062 0 48.7167 0.589492 48.7167 1.31667V2.63333H44.7667V1.31667C44.7667 0.589492 44.1772 0 43.45 0C42.7228 0 42.1333 0.589492 42.1333 1.31667V2.63333H40.8167C38.2002 2.63468 35.8329 4.18532 34.7863 6.58333H6.58333C2.94746 6.58333 0 9.53079 0 13.1667V53.9833C0 57.6192 2.94746 60.5667 6.58333 60.5667H26.4123C26.4123 62.9235 25.9515 68.3218 20.7112 71.1H18.4333C16.2518 71.1 14.4833 72.8685 14.4833 75.05C14.4833 77.2315 16.2518 79 18.4333 79H50.0333C52.2149 79 53.9833 77.2315 53.9833 75.05C53.9833 72.8685 52.2149 71.1 50.0333 71.1H49.0722C43.8055 68.3218 43.3183 62.9103 43.371 60.5667H61.8833C65.5192 60.5667 68.4667 57.6192 68.4667 53.9833V44.7667H72.4167C76.0525 44.7667 79 41.8192 79 38.1833V9.21667C79 5.58079 76.0525 2.63333 72.4167 2.63333ZM40.8167 5.26667H42.1333V6.58333C42.1333 7.31051 42.7228 7.9 43.45 7.9C44.1772 7.9 44.7667 7.31051 44.7667 6.58333V5.26667H48.7167V6.58333C48.7167 7.31051 49.3062 7.9 50.0333 7.9C50.7605 7.9 51.35 7.31051 51.35 6.58333V5.26667H55.3V6.58333C55.3 7.31051 55.8895 7.9 56.6167 7.9C57.3438 7.9 57.9333 7.31051 57.9333 6.58333V5.26667H61.8833V6.58333C61.8833 7.31051 62.4728 7.9 63.2 7.9C63.9272 7.9 64.5167 7.31051 64.5167 6.58333V5.26667H68.4667V6.58333C68.4667 7.31051 69.0562 7.9 69.7833 7.9C70.5105 7.9 71.1 7.31051 71.1 6.58333V5.26667H72.4167C74.5982 5.26667 76.3667 7.03514 76.3667 9.21667V11.85H36.8667V9.21667C36.8667 7.03514 38.6351 5.26667 40.8167 5.26667ZM51.35 75.05C51.35 75.7772 50.7605 76.3667 50.0333 76.3667H18.4333C17.7062 76.3667 17.1167 75.7772 17.1167 75.05C17.1167 74.3228 17.7062 73.7333 18.4333 73.7333H50.0333C50.7605 73.7333 51.35 74.3228 51.35 75.05ZM44.6613 71.1H25.122C27.7556 68.2345 29.172 64.4573 29.072 60.5667H40.8167C40.688 64.4428 42.066 68.2181 44.6613 71.1ZM61.8833 57.9333H6.58333C4.40181 57.9333 2.63333 56.1649 2.63333 53.9833V51.35H65.8333V53.9833C65.8333 56.1649 64.0649 57.9333 61.8833 57.9333ZM65.8333 48.7167H2.63333V13.1667C2.63333 10.9851 4.40181 9.21667 6.58333 9.21667H34.2333V23.1602L23.0417 34.3518L17.3932 28.6902C17.1459 28.4409 16.8094 28.3007 16.4583 28.3007C16.1073 28.3007 15.7707 28.4409 15.5235 28.6902L5.6485 38.5652C5.13221 39.0815 5.13221 39.9185 5.6485 40.4348C6.16479 40.9511 7.00187 40.9511 7.51817 40.4348L16.4583 31.4815L22.1068 37.1432C22.3541 37.3924 22.6906 37.5326 23.0417 37.5326C23.3927 37.5326 23.7293 37.3924 23.9765 37.1432L34.2333 26.8732V38.1833C34.2333 41.8192 37.1808 44.7667 40.8167 44.7667H65.8333V48.7167ZM72.4167 42.1333H40.8167C38.6351 42.1333 36.8667 40.3649 36.8667 38.1833V14.4833H76.3667V38.1833C76.3667 40.3649 74.5982 42.1333 72.4167 42.1333Z" fill="white"/>
<path d="M47.4 17.1167H40.8167C40.0895 17.1167 39.5 17.7062 39.5 18.4333V25.0167C39.5 25.7438 40.0895 26.3333 40.8167 26.3333H47.4C48.1272 26.3333 48.7167 25.7438 48.7167 25.0167V18.4333C48.7167 17.7062 48.1272 17.1167 47.4 17.1167ZM46.0833 23.7H42.1333V19.75H46.0833V23.7Z" fill="white"/>
<path d="M47.4 28.9667H40.8167C40.0895 28.9667 39.5 29.5562 39.5 30.2833V36.8667C39.5 37.5938 40.0895 38.1833 40.8167 38.1833H47.4C48.1272 38.1833 48.7167 37.5938 48.7167 36.8667V30.2833C48.7167 29.5562 48.1272 28.9667 47.4 28.9667ZM46.0833 35.55H42.1333V31.6H46.0833V35.55Z" fill="white"/>
<path d="M60.5667 17.1167H52.6667C51.9395 17.1167 51.35 17.7062 51.35 18.4333V25.0167C51.35 25.7438 51.9395 26.3333 52.6667 26.3333H60.5667C61.2939 26.3333 61.8833 25.7438 61.8833 25.0167V18.4333C61.8833 17.7062 61.2939 17.1167 60.5667 17.1167ZM59.25 23.7H53.9833V19.75H59.25V23.7Z" fill="white"/>
<path d="M60.5667 28.9667H52.6667C51.9395 28.9667 51.35 29.5562 51.35 30.2833V36.8667C51.35 37.5938 51.9395 38.1833 52.6667 38.1833H60.5667C61.2939 38.1833 61.8833 37.5938 61.8833 36.8667V30.2833C61.8833 29.5562 61.2939 28.9667 60.5667 28.9667ZM59.25 35.55H53.9833V31.6H59.25V35.55Z" fill="white"/>
<path d="M72.4167 17.1167H65.8333C65.1062 17.1167 64.5167 17.7062 64.5167 18.4333V25.0167C64.5167 25.7438 65.1062 26.3333 65.8333 26.3333H72.4167C73.1438 26.3333 73.7333 25.7438 73.7333 25.0167V18.4333C73.7333 17.7062 73.1438 17.1167 72.4167 17.1167ZM71.1 23.7H67.15V19.75H71.1V23.7Z" fill="white"/>
<path d="M72.4167 28.9667H65.8333C65.1062 28.9667 64.5167 29.5562 64.5167 30.2833V36.8667C64.5167 37.5938 65.1062 38.1833 65.8333 38.1833H72.4167C73.1438 38.1833 73.7333 37.5938 73.7333 36.8667V30.2833C73.7333 29.5562 73.1438 28.9667 72.4167 28.9667ZM71.1 35.55H67.15V31.6H71.1V35.55Z" fill="white"/>
<path d="M31.6 43.45H6.58333C5.85616 43.45 5.26666 44.0395 5.26666 44.7667C5.26666 45.4939 5.85616 46.0833 6.58333 46.0833H31.6C32.3272 46.0833 32.9167 45.4939 32.9167 44.7667C32.9167 44.0395 32.3272 43.45 31.6 43.45Z" fill="white"/>
<path d="M9.66433 24.6875C10.21 25.1667 11.0406 25.1137 11.5208 24.569L20.7375 14.0357C21.1796 13.4867 21.1111 12.687 20.5819 12.2213C20.0528 11.7557 19.2508 11.7893 18.7625 12.2977L9.54583 22.831C9.0666 23.3766 9.11962 24.2072 9.66433 24.6875Z" fill="white"/>
<path d="M10.5333 14.4833C9.80615 14.4833 9.21666 13.8938 9.21666 13.1667C9.21666 12.4395 9.80615 11.85 10.5333 11.85C11.2605 11.85 11.85 12.4395 11.85 13.1667C11.85 13.8938 11.2605 14.4833 10.5333 14.4833Z" fill="white"/>
<path d="M19.75 25.0167C19.0228 25.0167 18.4333 24.4272 18.4333 23.7C18.4333 22.9728 19.0228 22.3833 19.75 22.3833C20.4772 22.3833 21.0667 22.9728 21.0667 23.7C21.0667 24.4272 20.4772 25.0167 19.75 25.0167Z" fill="white"/>
</svg>
