<svg width="38" height="38" viewBox="0 0 38 38" fill="none" xmlns="http://www.w3.org/2000/svg">
<g clip-path="url(#clip0)">
<path d="M37.634 7.31769C36.2405 7.92894 34.7557 8.3341 33.2077 8.53083C34.8002 7.57999 36.0157 6.0858 36.5871 4.28482C35.1023 5.17009 33.4629 5.7954 31.7158 6.14435C30.3059 4.64315 28.2965 3.71338 26.1044 3.71338C21.8514 3.71338 18.4274 7.16546 18.4274 11.3974C18.4274 12.0063 18.4789 12.5918 18.6054 13.1492C12.2188 12.8377 6.56764 9.77676 2.77129 5.11388C2.10851 6.26379 1.71974 7.57999 1.71974 8.99689C1.71974 11.6574 3.0898 14.0157 5.132 15.3811C3.89778 15.3577 2.68698 14.9994 1.66119 14.435C1.66119 14.4584 1.66119 14.4888 1.66119 14.5193C1.66119 18.2524 4.32402 21.3532 7.81591 22.0675C7.1906 22.2384 6.50909 22.3204 5.80181 22.3204C5.30999 22.3204 4.81349 22.2923 4.34744 22.1893C5.34278 25.2315 8.16721 27.4681 11.5256 27.5407C8.91196 29.5852 5.59337 30.8171 2.00078 30.8171C1.37078 30.8171 0.766554 30.789 0.162323 30.7117C3.56522 32.9062 7.59811 34.1591 11.9472 34.1591C26.0834 34.1591 33.8119 22.4492 33.8119 12.2991C33.8119 11.9595 33.8002 11.6316 33.7838 11.3061C35.3084 10.2241 36.5895 8.87276 37.634 7.31769Z" fill="#FFFFFF"/>
</g>
<defs>
<clipPath id="clip0">
<rect width="37.4717" height="37.4717" fill="white" transform="translate(0.162323 0.200195)"/>
</clipPath>
</defs>
</svg>
